<svg xmlns="http://www.w3.org/2000/svg" xmlns:xlink="http://www.w3.org/1999/xlink" width="621" height="365" viewBox="0 0 621 365">
  <defs>
    <path id="spa-a" d="M391.325343,362.611182 C453.45035,362.611182 516.618889,360.430369 560.978503,335.844612 C583.492772,323.366363 611.89598,295.168823 598.132465,279.798767 C596.629946,278.120867 575.69955,263.489453 570.905273,257.783227 C548.52622,231.147316 657.820521,127.4001 607.698748,60.2679037 C578.926461,21.7308221 437.640508,0 391.325343,0 C249.803609,0 282.184082,216.692552 143.66554,216.692552 C131.45388,216.692552 -2.09309988,292.148589 0.0249238146,335.844612 C1.21730088,360.444023 103.878957,369.881295 152.111328,362.611182 C287.967072,342.133513 346.129242,362.611182 391.325343,362.611182 Z"/>
    <linearGradient id="spa-e" x1="103.761%" x2="51.676%" y1="20.909%" y2="50%">
      <stop offset="0%" stop-color="#86C6F6" stop-opacity=".947"/>
      <stop offset="100%" stop-color="#1F2257" stop-opacity=".947"/>
    </linearGradient>
    <path id="spa-d" d="M362.534485,394.948718 C508.902136,394.948718 627.556561,359.181444 627.556561,315.060276 C627.556561,270.939108 508.902136,235.171834 362.534485,235.171834 C270.898191,235.171834 275.560568,217.838976 18.4509699,315.060276 C-12.9715249,326.942119 45.3880353,354.74976 68.3189037,359.669571 C115.438584,369.779083 266.311979,363.411245 402.158559,349.136969 C553.023231,333.284645 299.948374,394.948718 362.534485,394.948718 Z"/>
    <filter id="spa-c" width="100.2%" height="101.2%" x="-.1%" y="-.3%" filterUnits="objectBoundingBox">
      <feOffset dy="1" in="SourceAlpha" result="shadowOffsetOuter1"/>
      <feComposite in="shadowOffsetOuter1" in2="SourceAlpha" operator="out" result="shadowOffsetOuter1"/>
      <feColorMatrix in="shadowOffsetOuter1" values="0 0 0 0 0.901960784   0 0 0 0 0.905882353   0 0 0 0 0.909803922  0 0 0 1 0"/>
    </filter>
    <linearGradient id="spa-f" x1="93.227%" x2="72.176%" y1="28.034%" y2="34.411%">
      <stop offset="0%" stop-color="#77A6D5"/>
      <stop offset="100%" stop-color="#2B2E61"/>
    </linearGradient>
    <linearGradient id="spa-g" x1="11.382%" x2="98.284%" y1="97.32%" y2="6.03%">
      <stop offset="0%" stop-color="#FDE8DC"/>
      <stop offset="47.79%" stop-color="#FCCFB8"/>
      <stop offset="100%" stop-color="#F9884F"/>
    </linearGradient>
    <linearGradient id="spa-h" x1="113.906%" x2="4.479%" y1="-37.937%" y2="113.762%">
      <stop offset="0%" stop-color="#FDE8DC"/>
      <stop offset="100%" stop-color="#FC8E57"/>
    </linearGradient>
    <linearGradient id="spa-i" x1="90.249%" x2="-.824%" y1="86.685%" y2=".695%">
      <stop offset="0%" stop-color="#FAA072"/>
      <stop offset="100%" stop-color="#FA9766"/>
    </linearGradient>
    <linearGradient id="spa-j" x1="84.562%" x2="-7.559%" y1="63.789%" y2="13.754%">
      <stop offset="0%" stop-color="#FAA072"/>
      <stop offset="100%" stop-color="#FA9766"/>
    </linearGradient>
    <linearGradient id="spa-k" x1="78.139%" x2="-59.685%" y1="74.281%" y2="-126.065%">
      <stop offset="0%" stop-color="#FDAD84"/>
      <stop offset="100%" stop-color="#FCBC9B"/>
    </linearGradient>
    <linearGradient id="spa-l" x1="56.534%" x2="32.626%" y1="49.447%" y2="74.474%">
      <stop offset="0%" stop-color="#FA9D6D"/>
      <stop offset="100%" stop-color="#8DE7A4"/>
    </linearGradient>
    <linearGradient id="spa-m" x1="-14.58%" x2="93.81%" y1="6.665%" y2="109.359%">
      <stop offset="0%" stop-color="#FAAA81"/>
      <stop offset="100%" stop-color="#FA9B6C"/>
    </linearGradient>
    <linearGradient id="spa-n" x1="-3.015%" x2="96.656%" y1="12.32%" y2="117.595%">
      <stop offset="0%" stop-color="#FDE8DC"/>
      <stop offset="100%" stop-color="#FC6F28"/>
    </linearGradient>
    <linearGradient id="spa-o" x1="51.196%" x2="-25.697%" y1="32.828%" y2="161.953%">
      <stop offset="0%" stop-color="#FAAE87"/>
      <stop offset="100%" stop-color="#FAAA81"/>
    </linearGradient>
    <linearGradient id="spa-p" x1="55.167%" x2="5.103%" y1="32.165%" y2="79.251%">
      <stop offset="0%" stop-color="#FBAC85"/>
      <stop offset="100%" stop-color="#8DE7A4"/>
    </linearGradient>
    <linearGradient id="spa-q" x1="27.472%" x2="124.255%" y1="20.793%" y2="121.976%">
      <stop offset="0%" stop-color="#B9AD99"/>
      <stop offset="100%" stop-color="#DEF5ED"/>
    </linearGradient>
    <linearGradient id="spa-r" x1="116.339%" x2="4.338%" y1="-15.314%" y2="112.245%">
      <stop offset="0%" stop-color="#5EDF7F"/>
      <stop offset="100%" stop-color="#5EDF7F"/>
    </linearGradient>
    <linearGradient id="spa-s" x1="117.995%" x2="0%" y1="33.491%" y2="100%">
      <stop offset="0%" stop-color="#F6D29B"/>
      <stop offset="100%" stop-color="#E9A662"/>
    </linearGradient>
    <linearGradient id="spa-t" x1="41.868%" x2="81.797%" y1="11.236%" y2="100%">
      <stop offset="0%" stop-color="#527253"/>
      <stop offset="100%" stop-color="#DBF3EA"/>
    </linearGradient>
    <linearGradient id="spa-u" x1="31.643%" x2="82.356%" y1="9.653%" y2="110.325%">
      <stop offset="0%" stop-color="#C9EFE1"/>
      <stop offset="100%" stop-color="#CACEC0"/>
    </linearGradient>
    <linearGradient id="spa-v" x1="50.273%" x2="50.273%" y1="-.076%" y2="99.529%">
      <stop offset="0%" stop-color="#D3EDE2"/>
      <stop offset="100%" stop-color="#7CD68E"/>
    </linearGradient>
    <linearGradient id="spa-w" x1="50.273%" x2="50.273%" y1="-.076%" y2="99.529%">
      <stop offset="0%" stop-color="#C6C7B7"/>
      <stop offset="100%" stop-color="#7CD68E"/>
    </linearGradient>
    <linearGradient id="spa-x" x1="96.355%" x2="-5.997%" y1="-26.257%" y2="78.187%">
      <stop offset="0%" stop-color="#D1E9FD"/>
      <stop offset="100%" stop-color="#5EDF7F"/>
    </linearGradient>
    <linearGradient id="spa-y" x1="49.345%" x2="49.345%" y1=".074%" y2="99.91%">
      <stop offset="0%" stop-color="#B3C7B4"/>
      <stop offset="100%" stop-color="#47C96D"/>
    </linearGradient>
    <linearGradient id="spa-z" x1="49.92%" x2="49.92%" y1="-10.819%" y2="100.007%">
      <stop offset="0%" stop-color="#DEF5F3"/>
      <stop offset="100%" stop-color="#5DD27A"/>
    </linearGradient>
    <linearGradient id="spa-A" x1="49.654%" x2="49.654%" y1="-24.122%" y2="154.562%">
      <stop offset="0%" stop-color="#527052"/>
      <stop offset="100%" stop-color="#63D480"/>
    </linearGradient>
    <linearGradient id="spa-B" x1="42.215%" x2="79.111%" y1="2.724%" y2="103.484%">
      <stop offset="0%" stop-color="#90BE97"/>
      <stop offset="100%" stop-color="#5DAF6F"/>
    </linearGradient>
    <linearGradient id="spa-C" x1="50.267%" x2="50.267%" y1=".109%" y2="100.213%">
      <stop offset="0%" stop-color="#5B9761"/>
      <stop offset="100%" stop-color="#9CC09E"/>
    </linearGradient>
    <linearGradient id="spa-D" x1="89.201%" x2="31.129%" y1="22.984%" y2="89.509%">
      <stop offset="0%" stop-color="#98BDA4"/>
      <stop offset="100%" stop-color="#5EDF7F"/>
    </linearGradient>
    <linearGradient id="spa-E" x1="49.602%" x2="49.602%" y1="-33.686%" y2="99.598%">
      <stop offset="0%" stop-color="#527354"/>
      <stop offset="100%" stop-color="#5C9B63"/>
    </linearGradient>
    <linearGradient id="spa-F" x1="100%" x2="5.738%" y1="-3.553%" y2="100%">
      <stop offset="0%" stop-color="#547D57"/>
      <stop offset="47.702%" stop-color="#B6D087"/>
      <stop offset="100%" stop-color="#A5986B"/>
    </linearGradient>
    <linearGradient id="spa-G" x1="50%" x2="92.879%" y1="-30.252%" y2="121.13%">
      <stop offset="0%" stop-color="#FDE8DC"/>
      <stop offset="100%" stop-color="#F9884F"/>
    </linearGradient>
    <linearGradient id="spa-H" x1="110.044%" x2="-6.173%" y1="-16.155%" y2="100%">
      <stop offset="0%" stop-color="#D1E9FD"/>
      <stop offset="100%" stop-color="#5EDF7F"/>
    </linearGradient>
    <linearGradient id="spa-I" x1="127.93%" x2="15.492%" y1="-6.028%" y2="122.165%">
      <stop offset="0%" stop-color="#B5E4C1"/>
      <stop offset="100%" stop-color="#5EDF7F"/>
    </linearGradient>
    <linearGradient id="spa-J" x1="112.086%" x2="-1.227%" y1="-16.482%" y2="101.877%">
      <stop offset="0%" stop-color="#D1E9FD"/>
      <stop offset="100%" stop-color="#5EDF7F"/>
    </linearGradient>
    <linearGradient id="spa-K" x1="103.287%" x2="5.315%" y1="2.843%" y2="87.014%">
      <stop offset="0%" stop-color="#527253"/>
      <stop offset="100%" stop-color="#64BF70"/>
    </linearGradient>
    <linearGradient id="spa-L" x1="95.442%" x2="-26.728%" y1="-22.147%" y2="106.731%">
      <stop offset="0%" stop-color="#5DA065"/>
      <stop offset="100%" stop-color="#99F0AF"/>
    </linearGradient>
    <linearGradient id="spa-M" x1="50.06%" x2="50.06%" y1="3.966%" y2="100.058%">
      <stop offset="0%" stop-color="#5EDF7F"/>
      <stop offset="100%" stop-color="#69A865"/>
    </linearGradient>
    <linearGradient id="spa-N" x1="95.764%" x2="16.56%" y1="-24.234%" y2="131.437%">
      <stop offset="0%" stop-color="#B1E7DA"/>
      <stop offset="100%" stop-color="#6B7041"/>
    </linearGradient>
    <linearGradient id="spa-O" x1="91.644%" x2="-38.739%" y1="37.015%" y2="139.97%">
      <stop offset="0%" stop-color="#526D50"/>
      <stop offset="100%" stop-color="#539C6B"/>
    </linearGradient>
    <linearGradient id="spa-P" x1="92.622%" x2="10.311%" y1="-12.015%" y2="95.976%">
      <stop offset="0%" stop-color="#D1C9A4"/>
      <stop offset="1.872%" stop-color="#97E4BD"/>
      <stop offset="60.23%" stop-color="#67B36A"/>
      <stop offset="100%" stop-color="#819671"/>
    </linearGradient>
    <linearGradient id="spa-Q" x1="93.635%" x2="28.911%" y1="21.473%" y2="92.766%">
      <stop offset="0%" stop-color="#ABE6D3"/>
      <stop offset="100%" stop-color="#6DE190"/>
    </linearGradient>
    <linearGradient id="spa-R" x1="107.989%" x2="-6.974%" y1="-17.237%" y2="101.52%">
      <stop offset="0%" stop-color="#D1E9FD"/>
      <stop offset="100%" stop-color="#5EDF7F"/>
    </linearGradient>
    <linearGradient id="spa-S" x1="88.27%" x2="3.443%" y1="-6.442%" y2="84.265%">
      <stop offset="0%" stop-color="#5EDF7F"/>
      <stop offset="100%" stop-color="#E9C7AE"/>
    </linearGradient>
    <linearGradient id="spa-T" x1="62.932%" x2="30.629%" y1="-4.298%" y2="100.045%">
      <stop offset="0%" stop-color="#67D479"/>
      <stop offset="100%" stop-color="#C9E7C6"/>
    </linearGradient>
    <linearGradient id="spa-U" x1="83.539%" x2="-2.168%" y1="1.202%" y2="101.181%">
      <stop offset="0%" stop-color="#67D579"/>
      <stop offset="100%" stop-color="#86DA91"/>
    </linearGradient>
    <linearGradient id="spa-V" x1="110.995%" x2="2.33%" y1="-19.975%" y2="105.742%">
      <stop offset="0%" stop-color="#7EB06E"/>
      <stop offset="100%" stop-color="#63E084"/>
    </linearGradient>
    <linearGradient id="spa-W" x1="114.049%" x2="1.707%" y1="-17.981%" y2="110.481%">
      <stop offset="0%" stop-color="#B5E4C1"/>
      <stop offset="100%" stop-color="#5EDF7F"/>
    </linearGradient>
    <linearGradient id="spa-X" x1="58.527%" x2="15.978%" y1="25.335%" y2="118.223%">
      <stop offset="0%" stop-color="#65BE6F"/>
      <stop offset="100%" stop-color="#94A970"/>
    </linearGradient>
    <linearGradient id="spa-Y" x1="100%" x2="42.588%" y1="-147.141%" y2="99.026%">
      <stop offset="0%" stop-color="#6BBB6F"/>
      <stop offset="100%" stop-color="#59905F"/>
    </linearGradient>
    <linearGradient id="spa-Z" x1="47.503%" x2="52.126%" y1="-13.929%" y2="99.788%">
      <stop offset="0%" stop-color="#65BE6F"/>
      <stop offset="100%" stop-color="#A29A6B"/>
      <stop offset="100%" stop-color="#A5986B"/>
    </linearGradient>
    <linearGradient id="spa-aa" x1="73.718%" x2="73.718%" y1="-9.096%" y2="123.728%">
      <stop offset="0%" stop-color="#65BE6F"/>
      <stop offset="53.823%" stop-color="#588D5E"/>
      <stop offset="100%" stop-color="#8BA76D"/>
    </linearGradient>
    <linearGradient id="spa-ab" x1="17.231%" x2="116.126%" y1="79.026%" y2="12.896%">
      <stop offset="0%" stop-color="#A5E5CD"/>
      <stop offset="100%" stop-color="#FFF"/>
    </linearGradient>
    <linearGradient id="spa-ac" x1="90.517%" x2="41.733%" y1="24.596%" y2="73.741%">
      <stop offset="0%" stop-color="#DEF5ED"/>
      <stop offset="100%" stop-color="#99BEA6"/>
    </linearGradient>
    <linearGradient id="spa-ad" x1="79.861%" x2="41.507%" y1="8.54%" y2="64.515%">
      <stop offset="0%" stop-color="#B1D2BF"/>
      <stop offset="100%" stop-color="#BE9883"/>
    </linearGradient>
    <linearGradient id="spa-ae" x1="68.529%" x2="28.796%" y1="3.524%" y2="106.022%">
      <stop offset="0%" stop-color="#B8B09B"/>
      <stop offset="100%" stop-color="#A4E7CE"/>
    </linearGradient>
    <linearGradient id="spa-af" x1="-12.816%" x2="79.751%" y1="-6.442%" y2="83.608%">
      <stop offset="0%" stop-color="#FEFFFE"/>
      <stop offset="100%" stop-color="#A1CEA1"/>
    </linearGradient>
    <linearGradient id="spa-ag" x1="-46.642%" x2="78.877%" y1="-31.168%" y2="77.191%">
      <stop offset="0%" stop-color="#B2B783"/>
      <stop offset="100%" stop-color="#3D4956"/>
    </linearGradient>
    <linearGradient id="spa-ah" x1="25.27%" x2="64.232%" y1="17.479%" y2="94.673%">
      <stop offset="0%" stop-color="#3A4456"/>
      <stop offset="39.15%" stop-color="#526F51"/>
      <stop offset="100%" stop-color="#779575"/>
    </linearGradient>
    <linearGradient id="spa-ai" x1="33.147%" x2="78.661%" y1="92.2%" y2="-41.653%">
      <stop offset="0%" stop-color="#3A4456"/>
      <stop offset="100%" stop-color="#CFE9CF"/>
    </linearGradient>
    <linearGradient id="spa-aj" x1="35.268%" x2="84.606%" y1="22.819%" y2="107.616%">
      <stop offset="0%" stop-color="#D4B7F3"/>
      <stop offset="100%" stop-color="#F9F9F9"/>
    </linearGradient>
    <linearGradient id="spa-ak" x1="101.167%" x2="14.565%" y1="1.082%" y2="81.313%">
      <stop offset="0%" stop-color="#A2C3E2"/>
      <stop offset="100%" stop-color="#FFB8AB"/>
    </linearGradient>
    <linearGradient id="spa-al" x1="50%" x2="99.085%" y1="25.712%" y2="98.174%">
      <stop offset="0%" stop-color="#FE876E"/>
      <stop offset="100%" stop-color="#FA80F0"/>
    </linearGradient>
    <linearGradient id="spa-am" x1="74.33%" x2="22.868%" y1="0%" y2="151.622%">
      <stop offset="0%" stop-color="#FFF"/>
      <stop offset="41.084%" stop-color="#FD8596"/>
      <stop offset="100%" stop-color="#F793A8"/>
    </linearGradient>
    <linearGradient id="spa-an" x1="109.942%" x2="-7.781%" y1="28.646%" y2="70.838%">
      <stop offset="0%" stop-color="#C5DFF8"/>
      <stop offset="100%" stop-color="#E74DE2"/>
    </linearGradient>
    <linearGradient id="spa-ao" x1="13.51%" x2="94.452%" y1="0%" y2="100%">
      <stop offset="0%" stop-color="#3A4456"/>
      <stop offset="49.344%" stop-color="#4F6A51"/>
      <stop offset="100%" stop-color="#394256"/>
    </linearGradient>
    <linearGradient id="spa-ap" x1="17.712%" x2="50%" y1="0%" y2="100%">
      <stop offset="0%" stop-color="#FFF"/>
      <stop offset="100%" stop-color="#A1CEA1"/>
    </linearGradient>
    <linearGradient id="spa-aq" x1="-31.255%" y1="-57.445%" y2="174.728%">
      <stop offset="0%" stop-color="#577754"/>
      <stop offset="100%" stop-color="#292657"/>
    </linearGradient>
    <linearGradient id="spa-ar" x1="38.053%" x2="0%" y1="33.57%" y2="0%">
      <stop offset="0%" stop-color="#CFE9CF"/>
      <stop offset="100%" stop-color="#292758"/>
    </linearGradient>
    <linearGradient id="spa-as" x1="91.737%" x2="17.846%" y1="18.188%" y2="83.777%">
      <stop offset="0%" stop-color="#FF674B"/>
      <stop offset="27.644%" stop-color="#FFA18F"/>
      <stop offset="100%" stop-color="#FFF"/>
    </linearGradient>
    <linearGradient id="spa-at" x1="101.139%" x2="0%" y1="83.908%" y2="34.063%">
      <stop offset="0%" stop-color="#FFE8E4"/>
      <stop offset="33.595%" stop-color="#FCC1A6"/>
      <stop offset="100%" stop-color="#FF674B"/>
    </linearGradient>
    <linearGradient id="spa-au" x1="67.819%" x2="67.819%" y1="0%" y2="100%">
      <stop offset="0%" stop-color="#FF7D64"/>
      <stop offset="26.104%" stop-color="#FFAFA0"/>
      <stop offset="100%" stop-color="#FFF"/>
    </linearGradient>
    <linearGradient id="spa-av" x1="-53.68%" x2="85.49%" y1="-67.197%" y2="103.544%">
      <stop offset="0%" stop-color="#FDCDB8"/>
      <stop offset="69.537%" stop-color="#FF7D64"/>
      <stop offset="100%" stop-color="#FFF"/>
    </linearGradient>
    <linearGradient id="spa-aw" x1="28.373%" x2="90.16%" y1="22.386%" y2="148.557%">
      <stop offset="0%" stop-color="#FFF"/>
      <stop offset="53.938%" stop-color="#FD8596"/>
      <stop offset="100%" stop-color="#F793A8"/>
    </linearGradient>
    <linearGradient id="spa-ax" x1="72.249%" x2="22.868%" y1="0%" y2="151.622%">
      <stop offset="0%" stop-color="#FFF"/>
      <stop offset="52.128%" stop-color="#FD8596"/>
      <stop offset="100%" stop-color="#F793A8"/>
    </linearGradient>
    <linearGradient id="spa-ay" x1="42.227%" x2="77.995%" y1="39.547%" y2="122.032%">
      <stop offset="0%" stop-color="#EEBBB6"/>
      <stop offset="100%" stop-color="#FF7D64"/>
    </linearGradient>
    <linearGradient id="spa-az" x1="130.149%" x2=".147%" y1="50.115%" y2="50.115%">
      <stop offset="0%" stop-color="#FFF"/>
      <stop offset="48.899%" stop-color="#FDC1F8"/>
      <stop offset="100%" stop-color="#FA80F0"/>
    </linearGradient>
    <linearGradient id="spa-aA" x1="78.572%" x2="27.349%" y1="-5.165%" y2="86.206%">
      <stop offset="0%" stop-color="#B7E0FD"/>
      <stop offset="100%" stop-color="#E999F4"/>
    </linearGradient>
    <linearGradient id="spa-aB" x1="61.692%" x2="35.999%" y1="-10.332%" y2="97.207%">
      <stop offset="0%" stop-color="#B7E0FD"/>
      <stop offset="100%" stop-color="#FA80F0"/>
    </linearGradient>
    <linearGradient id="spa-aC" x1="67.399%" x2="41.542%" y1="-9.048%" y2="97.797%">
      <stop offset="0%" stop-color="#B7E0FD"/>
      <stop offset="100%" stop-color="#F252E5"/>
    </linearGradient>
    <linearGradient id="spa-aD" x1="50%" x2="-53.483%" y1="110.829%" y2="-54.358%">
      <stop offset="0%" stop-color="#FFF"/>
      <stop offset="41.084%" stop-color="#FD8596"/>
      <stop offset="100%" stop-color="#F793A8"/>
    </linearGradient>
    <linearGradient id="spa-aE" x1="0%" x2="163.255%" y1="74.413%" y2="0%">
      <stop offset="0%" stop-color="#FFF"/>
      <stop offset="41.084%" stop-color="#FD8596"/>
      <stop offset="100%" stop-color="#F793A8"/>
    </linearGradient>
    <linearGradient id="spa-aF" x1="100%" x2="-40.216%" y1="100%" y2="-30.78%">
      <stop offset="0%" stop-color="#FFF"/>
      <stop offset="47.082%" stop-color="#FD8596"/>
      <stop offset="100%" stop-color="#F793A8"/>
    </linearGradient>
    <linearGradient id="spa-aG" x1="96.959%" x2="-44.777%" y1="9.758%" y2="140.54%">
      <stop offset="0%" stop-color="#F6D8C3"/>
      <stop offset="100%" stop-color="#F50"/>
    </linearGradient>
    <linearGradient id="spa-aH" x1="97.257%" x2="-24.256%" y1="10.678%" y2="105.442%">
      <stop offset="0%" stop-color="#FC9C62"/>
      <stop offset="100%" stop-color="#F50"/>
    </linearGradient>
    <linearGradient id="spa-aI" x1="50.201%" x2="50.201%" y1="-.09%" y2="67.268%">
      <stop offset="0%" stop-color="#FFA32B"/>
      <stop offset="100%" stop-color="#FFEADE"/>
    </linearGradient>
    <linearGradient id="spa-aJ" x1="109.931%" x2="8.669%" y1="42.885%" y2="55.985%">
      <stop offset="0%" stop-color="#F0C795"/>
      <stop offset="100%" stop-color="#F50"/>
    </linearGradient>
    <linearGradient id="spa-aK" x1="27.614%" x2="98.654%" y1="15.037%" y2="101.376%">
      <stop offset="0%" stop-color="#FFDFC1"/>
      <stop offset="100%" stop-color="#FB772C"/>
    </linearGradient>
    <linearGradient id="spa-aL" x1="99.916%" x2="-42.789%" y1="12.481%" y2="143.738%">
      <stop offset="0%" stop-color="#FF8E00"/>
      <stop offset="100%" stop-color="#F50"/>
    </linearGradient>
    <linearGradient id="spa-aM" x1="88.741%" x2="-3.222%" y1="11.605%" y2="95.619%">
      <stop offset="0%" stop-color="#FC6E21"/>
      <stop offset="100%" stop-color="#E59AA0"/>
    </linearGradient>
    <linearGradient id="spa-aN" x1="50.026%" x2="50.026%" y1="106.489%" y2="22.254%">
      <stop offset="0%" stop-color="#D5B4F7"/>
      <stop offset="100%" stop-color="#FB772C"/>
    </linearGradient>
    <linearGradient id="spa-aO" x1="106.308%" x2="-11.485%" y1="12.548%" y2="79.062%">
      <stop offset="0%" stop-color="#C67D59"/>
      <stop offset="100%" stop-color="#DA8E66"/>
    </linearGradient>
    <linearGradient id="spa-aP" x1="-6.337%" x2="92.606%" y1="-85.867%" y2="142.382%">
      <stop offset="0%" stop-color="#FCB088"/>
      <stop offset="100%" stop-color="#CB815C"/>
    </linearGradient>
    <linearGradient id="spa-aQ" x1="93.163%" x2="-49.961%" y1="4.715%" y2="135.969%">
      <stop offset="0%" stop-color="#FF8E00"/>
      <stop offset="100%" stop-color="#F50"/>
    </linearGradient>
  </defs>
  <g fill="none" fill-rule="evenodd" style="mix-blend-mode:darken">
    <mask id="spa-b" fill="#fff">
      <use xlink:href="#spa-a"/>
    </mask>
    <use fill="#FFF" xlink:href="#spa-a"/>
    <g mask="url(#spa-b)">
      <use fill="#000" filter="url(#spa-c)" xlink:href="#spa-d"/>
      <use fill="url(#spa-e)" xlink:href="#spa-d"/>
    </g>
    <path fill="url(#spa-f)" d="M392.499299,377.28771 C440.438074,377.28771 583.797838,401.360712 596.468412,360.484733 C611.901066,310.698135 563.407733,283.431052 545.846929,274.282888 C516.067028,258.76928 439.177909,248.012821 437.686502,248.012821 C423.23672,248.012821 383.170279,264.445481 371.185518,274.282888 C343.409488,297.082185 422.866752,340.390385 422.866752,393.1359 C422.866752,468.639972 344.560524,377.28771 392.499299,377.28771 Z" mask="url(#spa-b)" opacity=".155"/>
    <g mask="url(#spa-b)">
      <g transform="translate(158.294 44.923)">
        <g transform="translate(0 1.427)">
          <path fill="url(#spa-g)" fill-rule="nonzero" d="M348.596226,124.129707 C330.241509,136.4 313.89434,151.523849 300.415094,168.930544 C295.969811,174.780335 291.524528,181.343515 291.667925,188.620084 C291.811321,194.75523 295.25283,200.462343 299.554717,204.742678 C304,209.023013 309.30566,212.161925 314.467925,215.586192 C327.373585,223.861506 340.566038,235.275732 341.856604,250.542259 C342.573585,259.102929 339.418868,267.663598 334.4,274.512134 C329.381132,281.360669 322.498113,286.925105 315.471698,291.776151 C290.950943,308.754812 261.124528,319.598326 231.441509,316.887448 C208.928302,314.889958 186.845283,304.331799 172.218868,286.925105 C165.049057,278.364435 160.030189,267.520921 155.728302,257.248117 C150.709434,245.548536 149.275472,232.422176 150.566038,219.866527 C151.139623,215.015481 152,210.307113 153.290566,205.598745 C159.169811,184.625105 172.362264,166.076987 187.992453,150.81046 C208.928302,130.264854 235.169811,114.427615 263.992453,108.577824 C292.815094,102.728033 324.362264,107.436402 348.596226,124.129707 Z"/>
          <path fill="url(#spa-h)" fill-rule="nonzero" d="M361.932075,34.3853556 C367.381132,43.6594142 366.520755,54.8155488 366.520755,66.0598326 C366.520755,71.7608242 363.594414,78.7665241 364.656604,84.0933514 C365.689411,89.2728295 370.65883,92.7966147 374.264151,96.7355649 C377.132075,99.7317992 381.14717,103.441423 379.426415,107.293724 C377.70566,110.860669 371.969811,111.003347 370.535849,114.712971 C369.532075,116.995816 369.245283,119.564017 369.962264,121.846862 C370.282207,122.865549 370.843541,123.475541 371.009662,124.600388 C371.215812,125.996287 370.882007,127.856973 369.532075,128.410042 C369.119213,129.717115 369.959444,131.07395 369.532075,132.395456 C369.119987,133.669714 367.284577,135.787557 366.520755,136.893593 C364.656604,139.592934 365.422998,142.722156 364.656604,145.148465 C363.796226,147.573988 362.935849,148.670293 361.071698,150.382427 C358.203774,152.80795 354.045283,152.80795 350.173585,152.237238 C326.513208,148.955649 287.509434,129.83682 290.664151,101.158577 C291.381132,94.7380753 293.532075,88.460251 294.535849,82.039749 C296.4,71.0535565 295.539623,59.3539749 300.558491,49.509205 C304.573585,41.6619247 311.886792,35.9548117 320.203774,32.9585774 C328.520755,29.9623431 337.554717,29.6769874 346.301887,30.81841 C349.743396,31.2464435 353.184906,31.9598326 356.626415,32.8158996 C358.490566,33.2439331 360.211321,33.8146444 361.932075,34.3853556 Z"/>
          <path fill="url(#spa-i)" fill-rule="nonzero" d="M357.630189,152.665272 C354.045283,151.951883 351.750943,151.523849 350.173585,151.238494 C346.301887,150.525105 314.324528,139.68159 312.030189,137.6841 C311.313208,136.970711 310.739623,136.4 309.879245,135.543933 C305.864151,130.978243 306.007547,127.982008 302.996226,124.843096 C300.988679,122.702929 299.554717,122.702929 297.690566,121.418828 C290.950943,116.71046 274.890566,107.864435 281.486792,102.014644 C289.660377,94.7380753 311.886792,94.3100418 322.498113,113.143515 C325.222642,117.994561 336.981132,127.982008 339.992453,132.119665 C343.720755,137.398745 347.30566,138.682845 350.030189,142.392469 C355.766038,149.954393 358.633962,152.80795 357.630189,152.665272 Z" opacity=".415"/>
          <path fill="url(#spa-j)" fill-rule="nonzero" d="M357.630189,152.665272 C354.045283,151.951883 351.750943,151.523849 350.173585,151.238494 C346.301887,150.525105 314.324528,139.68159 312.030189,137.6841 C311.313208,136.970711 310.739623,136.4 309.879245,135.543933 C305.864151,130.978243 306.007547,127.982008 302.996226,124.843096 C300.988679,122.702929 299.554717,122.702929 297.690566,121.418828 C290.950943,116.71046 274.890566,107.864435 281.486792,102.014644 C289.660377,94.7380753 311.886792,94.3100418 322.498113,113.143515 C325.222642,117.994561 336.981132,127.982008 339.992453,132.119665 C343.720755,137.398745 347.30566,138.682845 350.030189,142.392469 C355.766038,149.954393 358.633962,152.80795 357.630189,152.665272 Z" opacity=".396"/>
          <path fill="url(#spa-k)" fill-rule="nonzero" d="M363.079245,98.8757322 C358.777358,94.0246862 351.033962,91.4564854 347.735849,88.0322176 C345.441509,85.7493724 351.607547,83.8945607 358.777358,77.4740586 C367.667925,69.6267782 354.618868,85.3213389 358.777358,88.0322176 C364.513208,91.741841 363.796226,99.7317992 363.079245,98.8757322 Z"/>
          <path fill="url(#spa-l)" fill-rule="nonzero" d="M305.290566,130.692887 C304.573585,129.83682 304,129.123431 303.139623,127.982008 C299.267925,122.274895 299.411321,118.565272 296.4,114.570293 C294.392453,112.002092 292.958491,111.859414 291.237736,110.289958 C284.641509,104.29749 268.867925,93.3112971 275.320755,86.034728 C283.350943,76.9033473 292.815094,74.0497908 303.139623,97.7343096 C304.286792,100.445188 308.732075,115.711715 313.750943,124.129707 C320.060377,134.687866 327.373585,138.682845 329.09434,141.536402 C332.679245,148.099582 307.441509,133.261088 305.290566,130.692887 Z" opacity=".096"/>
          <path fill="url(#spa-m)" fill-rule="nonzero" d="M294.535849,122.417573 C297.833962,122.417573 305.720755,123.987029 304.716981,120.705439 C304,118.279916 301.132075,114.570293 301.132075,111.574059 C301.132075,104.582845 292.671698,88.460251 286.935849,88.460251 C281.2,88.460251 286.935849,103.441423 286.935849,110.289958 C286.935849,117.281172 288.656604,122.417573 294.535849,122.417573 Z"/>
          <path fill="url(#spa-n)" fill-rule="nonzero" d="M293.818868,115.854393 C295.539623,115.854393 299.698113,116.71046 299.124528,114.998326 C298.69434,113.714226 297.260377,111.716736 297.260377,110.14728 C297.260377,106.437657 292.815094,97.8769874 289.660377,97.8769874 C286.649057,97.8769874 289.660377,105.724268 289.660377,109.433891 C289.660377,113.143515 290.664151,115.854393 293.818868,115.854393 Z"/>
          <path fill="url(#spa-o)" fill-rule="nonzero" d="M290.090566,192.757741 C288.8,193.043096 286.649057,186.479916 286.218868,184.91046 C284.784906,180.630126 283.350943,176.064435 283.49434,169.929289 C283.49434,166.505021 283.637736,158.943096 285.932075,158.515063 C289.086792,157.801674 297.116981,171.070711 294.392453,179.346025 C293.818868,181.058159 292.528302,183.198326 291.524528,187.621339 C290.807547,190.760251 290.807547,192.757741 290.090566,192.757741 Z"/>
          <path fill="url(#spa-p)" fill-rule="nonzero" d="M290.233962,194.612552 C288.943396,194.897908 286.792453,188.334728 286.362264,186.765272 C284.928302,182.484937 283.49434,177.919247 283.637736,171.7841 C283.637736,168.359833 283.781132,160.797908 286.075472,160.369874 C289.230189,159.656485 297.260377,172.925523 294.535849,181.200837 C293.962264,182.912971 292.671698,185.053138 291.667925,189.476151 C290.807547,192.615063 290.950943,194.469874 290.233962,194.612552 Z" opacity=".111"/>
          <g fill-rule="nonzero" transform="translate(74.408 32.141)">
            <path fill="url(#spa-q)" d="M281.2,0.856066946 C282.633962,0.428033473 284.211321,0.285355649 285.645283,0.428033473 C289.94717,0.856066946 293.962264,3.85230126 295.683019,7.84728033 C297.403774,11.8422594 296.973585,16.6933054 294.679245,20.4029289 C293.388679,22.6857741 291.237736,24.5405858 288.8,25.5393305 C286.362264,26.3953975 283.350943,26.1100418 281.343396,24.3979079 C283.49434,24.2552301 285.358491,22.4004184 285.501887,20.260251 C285.645283,18.1200837 283.781132,16.1225941 281.773585,15.8372385 C278.618868,15.409205 277.471698,18.9761506 275.033962,15.8372385 C273.026415,13.4117155 273.6,8.8460251 274.890566,6.27782427 C276.037736,3.56694561 278.475472,1.71213389 281.2,0.856066946 Z"/>
            <path fill="url(#spa-r)" d="M210.075472,24.9686192 C212.8,28.8209205 209.788679,34.6707113 208.784906,36.6682008 C206.060377,41.9472803 202.618868,42.9460251 199.750943,46.0849372 C194.875472,51.5066946 195.30566,58.7832636 196.883019,74.6205021 C199.750943,103.869456 200.898113,102.728033 200.754717,109.148536 C200.754717,111.288703 199.750943,131.976987 186.128302,147.671548 C176.233962,159.085774 160.890566,163.794142 130.203774,173.210879 C105.683019,180.772803 101.09434,181.058159 90.9132075,187.478661 C79.154717,195.040586 69.8339623,207.738912 70.1207547,221.721339 C70.4075472,235.561088 79.8716981,249.115481 76,262.384519 C73.9924528,269.51841 68.4,277.508368 72.9886792,283.358159 C75.2830189,286.354393 79.7283019,287.21046 83.4566038,286.354393 C87.1849057,285.498326 90.4830189,283.358159 93.6377358,281.217992 C97.0792453,284.499582 96.3622642,290.49205 93.2075472,294.058996 C90.0528302,297.625941 85.3207547,299.338075 80.7320755,300.479498 C62.8075472,305.045188 45.4566038,306.614644 23.0867925,298.482008 C13.3358491,294.915063 6.73962264,292.48954 3.15471698,285.641004 C-0.430188679,278.792469 -0.573584906,269.090377 4.44528302,263.240586 C10.4679245,256.106695 19.2150943,260.244351 30.4,256.39205 C45.1698113,251.398326 50.6188679,237.130544 62.2339623,215.586192 C78.2943396,185.623849 86.4679245,170.642678 96.7924528,160.940586 C130.060377,129.979498 171.932075,147.671548 184.69434,120.562762 C188.996226,111.431381 191.003774,94.8807531 189.283019,80.7556485 C188.566038,74.3351464 186.845283,67.0585774 186.988679,54.9309623 C186.988679,53.0761506 187.132075,44.2301255 190.860377,33.8146444 C193.728302,25.8246862 196.022642,23.8271967 198.030189,22.9711297 C201.615094,21.4016736 207.637736,21.5443515 210.075472,24.9686192 Z"/>
            <path fill="url(#spa-s)" d="M210.075472,24.9686192 C212.8,28.8209205 209.788679,34.6707113 208.784906,36.6682008 C206.060377,41.9472803 202.618868,42.9460251 199.750943,46.0849372 C194.875472,51.5066946 195.30566,58.7832636 196.883019,74.6205021 C199.750943,103.869456 200.898113,102.728033 200.754717,109.148536 C200.754717,111.288703 199.750943,131.976987 186.128302,147.671548 C176.233962,159.085774 160.890566,163.794142 130.203774,173.210879 C105.683019,180.772803 101.09434,181.058159 90.9132075,187.478661 C79.154717,195.040586 69.8339623,207.738912 70.1207547,221.721339 C70.4075472,235.561088 79.8716981,249.115481 76,262.384519 C73.9924528,269.51841 68.4,277.508368 72.9886792,283.358159 C75.2830189,286.354393 79.7283019,287.21046 83.4566038,286.354393 C87.1849057,285.498326 90.4830189,283.358159 93.6377358,281.217992 C97.0792453,284.499582 96.3622642,290.49205 93.2075472,294.058996 C90.0528302,297.625941 85.3207547,299.338075 80.7320755,300.479498 C62.8075472,305.045188 45.4566038,306.614644 23.0867925,298.482008 C13.3358491,294.915063 6.73962264,292.48954 3.15471698,285.641004 C-0.430188679,278.792469 -0.573584906,269.090377 4.44528302,263.240586 C10.4679245,256.106695 19.2150943,260.244351 30.4,256.39205 C45.1698113,251.398326 50.6188679,237.130544 62.2339623,215.586192 C78.2943396,185.623849 86.4679245,170.642678 96.7924528,160.940586 C130.060377,129.979498 171.932075,147.671548 184.69434,120.562762 C188.996226,111.431381 191.003774,94.8807531 189.283019,80.7556485 C188.566038,74.3351464 186.845283,67.0585774 186.988679,54.9309623 C186.988679,53.0761506 187.132075,44.2301255 190.860377,33.8146444 C193.728302,25.8246862 196.022642,23.8271967 198.030189,22.9711297 C201.615094,21.4016736 207.637736,21.5443515 210.075472,24.9686192 Z" opacity=".592"/>
            <path fill="url(#spa-t)" d="M273.886792,10.4154812 C276.754717,12.1276151 279.192453,14.9811715 278.332075,18.1200837 C277.615094,20.4029289 275.177358,22.2577406 275.607547,24.6832636 C275.89434,26.1100418 277.184906,27.2514644 278.618868,27.6794979 C280.05283,28.1075314 281.486792,27.9648536 283.064151,27.9648536 C280.626415,29.8196653 278.045283,31.8171548 275.033962,32.2451883 C272.022642,32.8158996 268.437736,31.5317992 267.433962,28.6782427 C266.573585,26.1100418 267.864151,23.2564854 267.433962,20.5456067 C267.003774,17.834728 264.709434,15.8372385 262.271698,14.6958159 C260.407547,13.9824268 254.384906,14.5531381 254.671698,11.2715481 C255.245283,5.56443515 270.301887,8.56066946 273.313208,10.1301255 C273.456604,10.1301255 273.743396,10.2728033 273.886792,10.4154812 Z"/>
            <path fill="url(#spa-u)" d="M264.422642,10.4154812 C264.279245,9.70209205 264.709434,8.8460251 265.426415,7.70460251 C266.286792,6.56317992 267.433962,5.84979079 268.724528,5.13640167 C272.596226,3.28158996 277.041509,2.99623431 281.2,4.28033473 C285.215094,5.56443515 288.8,8.56066946 290.664151,12.2702929 C291.954717,14.5531381 292.528302,17.4066946 291.524528,19.6895397 C290.520755,22.1150628 287.366038,23.541841 285.071698,22.2577406 C287.796226,21.6870293 289.086792,18.1200837 287.939623,15.6945607 C286.792453,13.1263598 284.067925,11.8422594 281.2,11.4142259 C278.475472,11.1288703 275.750943,11.6995816 272.883019,11.9849372 C270.732075,12.5556485 264.709434,12.983682 264.422642,10.4154812 Z"/>
            <path fill="url(#spa-v)" d="M248.649057,13.2690377 C252.377358,10.9861925 256.966038,10.1301255 261.124528,11.4142259 C264.135849,12.2702929 267.003774,14.4104603 268.007547,17.4066946 C269.011321,20.4029289 267.577358,24.2552301 264.566038,25.1112971 C263.849057,25.2539749 262.988679,25.3966527 262.271698,25.6820084 C261.554717,25.967364 260.837736,26.6807531 260.981132,27.3941423 C261.124528,28.392887 262.128302,28.8209205 262.845283,29.3916318 C264.135849,30.5330544 264.566038,32.5305439 263.70566,34.1 C262.845283,35.5267782 260.837736,36.2401674 259.260377,35.6694561 C260.264151,35.0987448 259.403774,33.5292887 258.256604,33.1012552 C257.25283,32.8158996 255.962264,32.9585774 254.958491,32.3878661 C253.381132,31.5317992 253.237736,29.3916318 253.954717,27.8221757 C254.671698,26.2527197 255.962264,25.1112971 257.109434,23.6845188 C258.113208,22.4004184 258.973585,20.5456067 258.4,18.9761506 C257.826415,17.2640167 255.675472,16.4079498 253.811321,16.4079498 C251.94717,16.5506276 250.226415,17.4066946 248.50566,18.1200837 C247.071698,18.8334728 243.630189,20.6882845 243.343396,18.4054393 C243.2,16.9786611 246.928302,14.2677824 247.932075,13.5543933 C248.218868,13.4117155 248.50566,13.4117155 248.649057,13.2690377 Z"/>
            <path fill="url(#spa-w)" d="M248.649057,13.2690377 C252.377358,10.9861925 256.966038,10.1301255 261.124528,11.4142259 C264.135849,12.2702929 267.003774,14.4104603 268.007547,17.4066946 C269.011321,20.4029289 267.577358,24.2552301 264.566038,25.1112971 C263.849057,25.2539749 262.988679,25.3966527 262.271698,25.6820084 C261.554717,25.967364 260.837736,26.6807531 260.981132,27.3941423 C261.124528,28.392887 262.128302,28.8209205 262.845283,29.3916318 C264.135849,30.5330544 264.566038,32.5305439 263.70566,34.1 C262.845283,35.5267782 260.837736,36.2401674 259.260377,35.6694561 C260.264151,35.0987448 259.403774,33.5292887 258.256604,33.1012552 C257.25283,32.8158996 255.962264,32.9585774 254.958491,32.3878661 C253.381132,31.5317992 253.237736,29.3916318 253.954717,27.8221757 C254.671698,26.2527197 255.962264,25.1112971 257.109434,23.6845188 C258.113208,22.4004184 258.973585,20.5456067 258.4,18.9761506 C257.826415,17.2640167 255.675472,16.4079498 253.811321,16.4079498 C251.94717,16.5506276 250.226415,17.4066946 248.50566,18.1200837 C247.071698,18.8334728 243.630189,20.6882845 243.343396,18.4054393 C243.2,16.9786611 246.928302,14.2677824 247.932075,13.5543933 C248.218868,13.4117155 248.50566,13.4117155 248.649057,13.2690377 Z"/>
            <path fill="url(#spa-x)" d="M247.788679,14.4104603 C247.932075,14.2677824 248.218868,14.1251046 248.362264,14.1251046 C249.796226,13.5543933 251.373585,13.6970711 252.807547,13.6970711 C254.384906,13.839749 256.10566,13.839749 257.683019,14.5531381 C259.260377,15.2665272 260.550943,16.5506276 260.550943,18.2627615 C260.69434,21.116318 257.539623,22.6857741 255.532075,24.6832636 C252.950943,27.3941423 252.090566,31.2464435 251.94717,34.9560669 C251.94717,38.6656904 252.520755,42.3753138 252.233962,46.0849372 C252.090566,47.6543933 251.373585,54.360251 248.792453,53.0761506 C247.358491,52.3627615 248.075472,44.9435146 247.788679,43.2313808 C247.071698,39.2364017 246.211321,34.9560669 247.645283,31.2464435 C248.649057,28.6782427 250.8,25.967364 249.65283,23.3991632 C248.792453,21.116318 245.781132,19.9748954 245.637736,17.5493724 C245.924528,16.1225941 246.784906,14.9811715 247.788679,14.4104603 Z"/>
            <path fill="url(#spa-y)" d="M243.056604,14.5531381 C245.207547,13.4117155 247.788679,13.1263598 249.796226,14.5531381 C253.237736,16.9786611 252.950943,21.9723849 252.233962,26.1100418 C251.086792,33.2439331 249.796226,40.2351464 248.649057,47.3690377 C247.932075,51.2213389 247.215094,55.3589958 244.633962,58.3552301 C242.626415,60.7807531 236.603774,63.348954 234.022642,60.2100418 C231.441509,57.0711297 235.169811,51.5066946 238.324528,50.365272 C236.603774,51.2213389 237.177358,54.0748954 238.754717,54.7882845 C240.475472,55.5016736 242.483019,54.6456067 243.916981,53.3615063 C246.784906,50.365272 247.071698,45.6569038 245.781132,41.6619247 C244.633962,37.6669456 242.196226,34.2426778 240.618868,30.3903766 C239.041509,26.5380753 237.89434,22.1150628 239.615094,18.4054393 C240.188679,16.8359833 241.479245,15.409205 243.056604,14.5531381 Z"/>
            <path fill="#8D664E" d="M244.920755,19.4041841 C245.781132,19.1188285 246.928302,20.1175732 247.501887,20.6882845 C248.935849,22.5430962 248.075472,25.2539749 247.215094,27.8221757 C246.641509,29.3916318 245.637736,32.5305439 244.777358,32.3878661 C243.2,32.2451883 242.339623,20.260251 244.920755,19.4041841 Z"/>
            <path fill="url(#spa-z)" d="M244.920755,19.4041841 C249.939623,23.6845188 247.501887,34.2426778 243.343396,40.0924686 C240.332075,44.0874477 236.316981,46.6556485 236.316981,46.6556485 C232.015094,49.2238494 229.290566,48.9384937 227.569811,51.7920502 C226.279245,53.7895397 225.992453,56.9284519 227.139623,59.0686192 C228.573585,61.9221757 231.298113,61.2087866 234.166038,64.2050209 C236.316981,66.4878661 235.6,70.1974895 234.309434,72.9083682 C232.158491,77.4740586 223.411321,76.1899582 223.411321,75.6192469 C223.411321,75.3338912 226.279245,73.3364017 227.139623,71.3389121 C228.143396,69.1987448 226.135849,68.9133891 224.128302,65.774477 C219.969811,59.0686192 219.826415,48.7958159 223.698113,42.9460251 C228.430189,35.6694561 237.607547,37.2389121 238.611321,31.9598326 C239.615094,26.823431 231.298113,22.9711297 232.732075,19.8322176 C233.735849,16.9786611 241.192453,16.1225941 244.920755,19.4041841 Z"/>
            <path fill="url(#spa-A)" d="M231.441509,15.9799163 C235.456604,15.8372385 239.615094,17.9774059 241.766038,21.4016736 C244.633962,25.967364 244.203774,32.2451883 241.192453,36.8108787 C238.181132,41.376569 233.018868,44.2301255 227.713208,45.0861925 C225.70566,45.3715481 223.554717,45.6569038 222.264151,47.2263598 C221.116981,48.7958159 221.403774,50.9359833 222.264151,52.6481172 C223.124528,54.360251 224.558491,55.6443515 225.70566,57.2138075 C227.426415,59.7820084 228.430189,62.9209205 227.713208,65.9171548 C226.996226,68.9133891 224.701887,71.6242678 221.690566,72.3376569 C208.784906,75.1912134 210.218868,53.0761506 211.65283,46.3702929 C213.230189,38.951046 216.384906,31.9598326 220.113208,25.2539749 C221.977358,21.9723849 224.128302,18.5481172 227.569811,16.8359833 C228.716981,16.265272 230.007547,15.9799163 231.441509,15.9799163 Z"/>
            <path fill="url(#spa-B)" d="M231.011321,22.4004184 C231.154717,22.4004184 231.154717,22.5430962 231.298113,22.5430962 C233.30566,23.6845188 234.166038,26.2527197 233.879245,28.6782427 C233.30566,33.3866109 229.433962,36.8108787 225.992453,39.9497908 C222.550943,43.2313808 219.109434,47.2263598 219.539623,51.934728 C219.826415,54.6456067 221.54717,57.0711297 223.411321,59.2112971 C225.275472,61.3514644 227.283019,63.348954 228.430189,65.9171548 C231.154717,71.9096234 223.841509,79.6142259 220.113208,72.9083682 C218.535849,70.1974895 219.109434,65.9171548 218.10566,62.9209205 C216.958491,59.2112971 214.950943,55.6443515 212.226415,52.6481172 C210.218868,50.5079498 207.781132,48.5104603 206.777358,45.7995816 C204.913208,41.0912134 208.067925,35.8121339 211.509434,32.2451883 C214.950943,28.6782427 219.109434,25.5393305 223.698113,23.3991632 C226.135849,22.2577406 228.860377,21.4016736 231.011321,22.4004184 Z"/>
            <path fill="url(#spa-C)" d="M223.554717,32.9585774 C223.124528,34.5280335 222.120755,36.0974895 221.116981,37.38159 C219.539623,39.3790795 217.532075,40.9485356 215.811321,42.8033473 C209.071698,49.6518828 205.343396,59.7820084 207.637736,69.0560669 C209.071698,74.9058577 212.656604,79.8995816 215.381132,85.1786611 C218.10566,90.4577406 220.256604,96.7355649 218.392453,102.442678 C217.818868,104.29749 210.649057,119.232303 208.784906,119.945692 C205.773585,121.229793 209.788679,105.438912 208.784906,103.156067 C207.207547,99.5891213 205.773585,95.8794979 204.339623,92.3125523 C201.615094,85.0359833 199.607547,77.4740586 199.320755,69.6267782 C198.890566,56.2150628 203.909434,43.2313808 210.218868,31.3891213 C211.222642,29.5343096 212.369811,27.6794979 213.94717,26.2527197 C215.524528,24.8259414 217.818868,23.9698745 219.826415,24.5405858 C222.264151,25.2539749 223.841509,27.8221757 223.841509,30.3903766 C223.984906,31.3891213 223.841509,32.2451883 223.554717,32.9585774 Z"/>
          </g>
          <g fill-rule="nonzero" transform="translate(0 38.633)">
            <path fill="url(#spa-D)" d="M245.637736,6.56317992 C244.920755,4.85104603 243.2,3.70962343 241.479245,3.28158996 C239.471698,2.85355649 237.177358,3.28158996 235.169811,3.99497908 C223.984906,7.70460251 215.811321,19.2615063 216.241509,31.1037657 C216.384906,34.5280335 217.101887,37.8096234 217.101887,41.2338912 C217.101887,44.658159 216.241509,48.2251046 213.660377,50.5079498 C210.649057,53.2188285 206.203774,53.2188285 202.045283,53.7895397 C197.886792,54.360251 193.441509,55.7870293 192.150943,59.6393305 C190.573585,64.6330544 195.592453,69.4841004 195.162264,74.6205021 C194.732075,78.758159 190.860377,81.7543933 186.845283,82.6104603 C182.830189,83.4665272 178.671698,82.7531381 174.513208,82.039749 C165.049057,80.4702929 155.298113,79.6142259 145.833962,81.183682 C136.369811,82.7531381 127.049057,86.7481172 120.596226,93.7393305 C118.301887,96.3075314 116.29434,99.3037657 115.433962,102.585356 C114.286792,107.436402 115.290566,113.856904 121.313208,112.430126 C126.90566,111.003347 131.637736,106.723013 136.513208,103.5841 C160.173585,88.0322176 191.720755,90.8857741 217.532075,79.0435146 C223.984906,76.0472803 230.581132,71.6242678 232.875472,64.91841 C236.316981,55.0736402 229.720755,44.5154812 230.007547,34.1 C230.150943,27.1087866 233.735849,20.260251 239.184906,15.9799163 C242.339623,13.5543933 246.498113,10.9861925 245.781132,7.13389121 C245.924528,7.13389121 245.781132,6.84853556 245.637736,6.56317992 Z"/>
            <path fill="url(#spa-E)" d="M288.083019,47.7970711 C286.218868,51.2213389 285.358491,55.3589958 286.362264,59.2112971 C287.079245,61.9221757 291.954717,72.4019874 292.671698,75.1128661 C293.388679,77.8237448 294.679245,79.6142259 292.671698,81.4690377 C285.932075,73.907113 276.181132,66.2025105 276.611321,55.0736402 C276.754717,50.0799163 278.90566,45.3715481 282.34717,41.8046025 C281.905761,38.365643 300.127499,11.8883328 300.747722,14.3854346 C300.826624,14.7031084 304.997979,13.0091406 303.841662,16.1645064 C300.370206,25.6374425 288.228179,47.4720973 288.083019,47.7970711 Z"/>
            <path fill="url(#spa-F)" d="M284.928302,34.1 C284.928302,34.1 284.928302,34.3853556 282.060377,42.3753138 C274.030189,58.4979079 274.173585,63.6343096 274.173585,63.6343096 C274.460377,70.0548117 278.475472,73.7644351 280.196226,77.6167364 C287.939623,95.8794979 285.788679,117.709205 275.464151,134.830544 C265.283019,151.951883 247.645283,164.079498 228.286792,169.073222 C218.535849,171.641423 208.354717,172.354812 198.460377,174.209623 C188.566038,176.064435 178.528302,179.203347 170.784906,185.766527 C163.041509,192.329707 158.166038,202.745188 160.460377,212.589958 C163.041509,223.290795 173.222642,230.424686 183.403774,234.562343 C193.584906,238.7 204.769811,240.840167 214.090566,246.689958 C223.411321,252.539749 230.724528,263.811297 227.426415,274.226778 C223.841509,285.498326 210.649057,290.064017 199.177358,293.060251 C193.871698,294.487029 188.709434,295.77113 183.403774,297.197908 C178.958491,298.339331 172.792453,298.910042 170.928302,294.629707 C169.49434,291.490795 171.788679,287.923849 174.656604,286.211715 C177.524528,284.499582 181.109434,284.071548 184.264151,283.215481 C193.728302,280.504603 201.758491,270.089121 197.743396,261.100418 C194.301887,253.538494 184.69434,251.398326 176.377358,250.256904 C167.916981,249.115481 153.577358,246.261925 154.29434,235.41841 C154.867925,225.002929 158.45283,214.44477 163.184906,205.170711 C173.079245,186.194561 189.713208,170.642678 209.501887,162.224686 C219.396226,157.944351 229.864151,155.376151 239.758491,151.381172 C249.65283,147.386192 259.403774,141.536402 265.283019,132.690377 C273.743396,119.99205 273.313208,103.441423 270.875472,88.3175732 C268.437736,73.1937238 264.566038,57.9271967 267.290566,42.9460251 C268.007547,38.951046 269.154717,33.5292887 273.169811,31.5317992 C277.901887,29.3916318 283.924528,31.2464435 284.928302,34.1 Z"/>
            <path fill="url(#spa-G)" d="M293.962264,10.1301255 C295.25283,13.1263598 295.109434,16.6933054 294.10566,18.8334728 C290.807547,27.3941423 274.173585,22.5430962 266.430189,30.6757322 C260.264151,37.2389121 264.279245,47.5117155 266.143396,62.9209205 C267.14717,71.7669456 271.592453,108.149791 256.822642,126.412552 C242.913208,143.533891 224.845283,128.695397 194.015094,145.674059 C175.94717,155.661506 151.569811,175.06569 144.973585,202.60251 C141.245283,218.154393 140.815094,236.845188 127.479245,245.976569 C119.592453,251.398326 109.267925,251.398326 99.8037736,252.825105 C90.3396226,254.251883 79.7283019,258.38954 76.7169811,267.378243 C74.2792453,274.654812 78.0075472,283.072803 84.0301887,287.923849 C90.0528302,292.774895 97.9396226,294.772385 105.683019,295.343096 C102.528302,295.057741 97.509434,297.768619 94.0679245,298.053975 C89.7660377,298.482008 85.3207547,298.196653 81.1622642,297.340586 C72.2716981,295.628452 63.8113208,291.490795 57.3584906,285.212971 C43.5924528,271.943933 47.3207547,251.541004 62.090566,240.554812 C73.2754717,232.279498 87.3283019,229.140586 100.090566,223.576151 C112.85283,218.011715 125.471698,207.88159 126.618868,194.041841 C127.335849,185.909205 124.181132,176.920502 128.913208,170.357322 C134.075472,163.080753 144.973585,163.794142 152.573585,159.228452 C162.754717,153.235983 165.335849,139.824268 172.362264,130.407531 C182.686792,116.71046 201.184906,112.858159 217.532075,108.007113 C233.879245,103.156067 252.377358,93.8820084 255.532075,77.0460251 C258.4,61.6368201 247.215094,46.7983264 247.501887,31.2464435 C247.788679,17.4066946 258.4,4.56569038 271.879245,1.42677824 C277.615094,0.142677824 283.924528,0.428033473 288.656604,3.70962343 C291.09434,5.2790795 292.815094,7.56192469 293.962264,10.1301255 Z"/>
            <path fill="url(#spa-H)" d="M293.962264,10.1301255 C295.25283,13.1263598 295.109434,16.6933054 294.10566,18.8334728 C290.807547,27.3941423 274.173585,22.5430962 266.430189,30.6757322 C260.264151,37.2389121 264.279245,47.5117155 266.143396,62.9209205 C267.14717,71.7669456 271.592453,108.149791 256.822642,126.412552 C242.913208,143.533891 224.845283,128.695397 194.015094,145.674059 C175.94717,155.661506 151.569811,175.06569 144.973585,202.60251 C141.245283,218.154393 140.815094,236.845188 127.479245,245.976569 C119.592453,251.398326 109.267925,251.398326 99.8037736,252.825105 C90.3396226,254.251883 79.7283019,258.38954 76.7169811,267.378243 C74.2792453,274.654812 78.0075472,283.072803 84.0301887,287.923849 C90.0528302,292.774895 97.9396226,294.772385 105.683019,295.343096 C102.528302,295.057741 97.509434,297.768619 94.0679245,298.053975 C89.7660377,298.482008 85.3207547,298.196653 81.1622642,297.340586 C72.2716981,295.628452 63.8113208,291.490795 57.3584906,285.212971 C43.5924528,271.943933 47.3207547,251.541004 62.090566,240.554812 C73.2754717,232.279498 87.3283019,229.140586 100.090566,223.576151 C112.85283,218.011715 125.471698,207.88159 126.618868,194.041841 C127.335849,185.909205 124.181132,176.920502 128.913208,170.357322 C134.075472,163.080753 144.973585,163.794142 152.573585,159.228452 C162.754717,153.235983 165.335849,139.824268 172.362264,130.407531 C182.686792,116.71046 201.184906,112.858159 217.532075,108.007113 C233.879245,103.156067 252.377358,93.8820084 255.532075,77.0460251 C258.4,61.6368201 247.215094,46.7983264 247.501887,31.2464435 C247.788679,17.4066946 258.4,4.56569038 271.879245,1.42677824 C277.615094,0.142677824 283.924528,0.428033473 288.656604,3.70962343 C291.09434,5.2790795 292.815094,7.56192469 293.962264,10.1301255 Z" opacity=".805"/>
            <path fill="url(#spa-I)" d="M252.807547,20.8309623 C253.954717,20.9736402 251.660377,31.674477 254.671698,48.3677824 C256.249057,57.0711297 258.4,62.492887 258.113208,72.3376569 C257.969811,76.332636 257.539623,80.3276151 255.818868,84.7506276 C255.388679,85.7493724 253.667925,90.3150628 250.083019,94.7380753 C243.343396,102.728033 234.166038,105.296234 221.54717,108.86318 C211.939623,111.431381 202.618868,112.858159 202.475472,112.287448 C202.332075,111.716736 210.50566,110.004603 222.264151,105.010879 C234.596226,99.874477 241.049057,97.0209205 246.354717,90.6004184 C248.362264,88.1748954 250.369811,58.6405858 249.222642,45.2288703 C248.075472,31.9598326 251.660377,20.6882845 252.807547,20.8309623 Z"/>
            <path fill="url(#spa-J)" d="M249.939623,33.6719665 C250.513208,35.5267782 250.943396,37.38159 251.230189,39.2364017 C254.815094,58.3552301 256.679245,79.8995816 244.777358,95.3087866 C234.166038,109.005858 215.954717,113.42887 200.324528,121.133473 C188.279245,127.125941 170.498113,140.109623 157.735849,159.799163 C152.143396,168.50251 140.528302,189.618828 142.249057,223.290795 C139.667925,217.155649 126.618868,184.482427 141.818868,148.527615 C143.539623,144.532636 160.603774,111.146025 189.283019,99.1610879 C197.743396,95.7368201 206.633962,93.5966527 215.237736,90.4577406 C223.841509,87.3188285 232.158491,82.8958159 237.89434,75.9046025 C243.630189,68.7707113 246.067925,58.6405858 242.05283,50.5079498 C239.901887,46.0849372 236.030189,42.5179916 233.879245,38.0949791 C231.728302,33.6719665 231.728302,27.2514644 236.173585,24.8259414 C239.758491,22.8284519 244.490566,24.6832636 246.928302,27.8221757 C248.50566,29.6769874 249.366038,31.674477 249.939623,33.6719665 Z"/>
            <path fill="url(#spa-K)" d="M240.618868,7.41924686 C243.2,8.98870293 228.573585,27.5368201 235.743396,39.6644351 C238.898113,45.0861925 243.630189,44.8008368 246.067925,51.0786611 C248.649057,57.9271967 245.637736,64.7757322 244.060377,68.4853556 C240.332075,77.0460251 234.022642,82.039749 231.441509,83.7518828 C227.569811,86.4627615 223.124528,88.460251 198.890566,91.5991632 C180.822642,94.0246862 179.245283,95.1661088 171.501887,97.0209205 C161.607547,99.4464435 155.154717,103.013389 147.411321,109.148536 C143.969811,111.859414 129.773585,153.235983 128.913208,166.933054 C128.769811,168.787866 128.626415,170.785356 128.626415,171.070711 C128.339623,173.924268 127.479245,185.623849 126.762264,185.623849 C126.045283,185.623849 126.618868,171.641423 125.041509,150.239749 C123.750943,130.978243 122.316981,129.694142 124.037736,123.987029 C128.626415,109.148536 145.833962,99.7317992 151.139623,97.0209205 C162.611321,91.1711297 160.74717,95.4514644 180.535849,87.4615063 C186.988679,84.8933054 193.871698,81.7543933 203.479245,81.8970711 C208.067925,82.039749 208.211321,82.7531381 211.366038,82.3251046 C221.260377,80.8983264 229.864151,72.0523013 231.584906,63.2062762 C232.301887,59.7820084 231.154717,59.3539749 228.860377,46.7983264 C226.85283,35.6694561 225.849057,30.1050209 226.85283,25.2539749 C229.003774,14.2677824 238.898113,6.42050209 240.618868,7.41924686 Z"/>
            <path fill="url(#spa-L)" d="M242.05283,72.3376569 C232.015094,78.3301255 216.241509,86.4627615 195.592453,90.8857741 C169.637736,96.4502092 157.735849,91.741841 145.54717,99.4464435 C134.935849,106.152301 124.754717,122.274895 126.475472,163.794142 C131.49434,145.816736 139.667925,134.973222 145.260377,128.980753 C157.449057,115.711715 180.822642,99.7317992 204.913208,96.7355649 C209.501887,96.1648536 216.815094,95.1661088 224.845283,90.3150628 C233.592453,85.1786611 238.898113,77.7594142 242.05283,72.3376569 Z"/>
            <path fill="url(#spa-M)" d="M218.10566,93.7393305 C209.215094,95.4514644 200.181132,95.1661088 191.14717,97.448954 C182.543396,99.5891213 173.939623,102.442678 165.909434,106.580335 C160.74717,109.148536 141.818868,119.421339 132.211321,140.823013 C119.449057,169.358577 132.498113,197.038075 134.649057,201.31841 C134.218868,177.919247 138.090566,149.383682 157.30566,128.410042 C180.822642,102.728033 221.403774,93.1686192 218.10566,93.7393305 Z"/>
            <path fill="url(#spa-N)" d="M225.992453,32.8158996 C225.562264,32.9585774 224.988679,33.8146444 224.701887,34.5280335 C224.415094,35.5267782 224.845283,36.525523 224.988679,36.8108787 C225.992453,39.3790795 225.562264,46.0849372 223.841509,50.365272 C222.264151,54.360251 219.539623,56.6430962 217.245283,58.6405858 C211.222642,63.7769874 208.498113,61.7794979 204.339623,65.9171548 C198.74717,71.48159 202.188679,76.6179916 196.883019,79.8995816 C194.588679,81.3263598 191.003774,82.3251046 184.981132,85.4640167 C184.407547,85.7493724 183.260377,86.4627615 183.260377,87.1761506 C183.260377,88.460251 186.845283,89.316318 188.422642,89.4589958 C191.864151,89.7443515 195.30566,89.316318 198.460377,88.1748954 C203.335849,86.4627615 207.637736,83.609205 211.65283,80.4702929 C217.675472,75.7619247 222.981132,70.4828452 227.713208,64.6330544 C232.301887,58.9259414 234.883019,54.2175732 234.596226,48.0824268 C234.309434,39.807113 227.856604,32.2451883 225.992453,32.8158996 Z"/>
            <path fill="url(#spa-O)" d="M226.566038,25.5393305 C228.286792,15.2665272 239.184906,8.70334728 240.618868,9.70209205 C242.05283,10.8435146 233.018868,20.9736402 230.581132,38.6656904 C229.864151,43.9447699 230.437736,45.2288703 229.290566,50.0799163 C228.143396,54.6456067 224.415094,64.3476987 220.686792,69.4841004 C216.958491,74.6205021 212.656604,76.0472803 187.418868,84.6079498 C167.916981,91.3138075 157.735849,94.7380753 157.879245,95.1661088 C158.022642,95.4514644 162.181132,94.3100418 168.34717,93.0259414 C180.392453,90.7430962 184.550943,91.4564854 192.150943,90.4577406 C195.879245,89.8870293 208.498113,87.8895397 220.543396,79.6142259 C228.143396,74.3351464 236.030189,68.0573222 238.324528,58.9259414 C241.622642,45.6569038 224.271698,39.0937238 226.566038,25.5393305 Z"/>
            <path fill="url(#spa-P)" d="M161.750943,93.1686192 C156.445283,91.8845188 145.833962,90.3150628 135.509434,95.5941423 C121.886792,102.585356 116.29434,117.423849 114.430189,126.840586 C111.418868,142.677824 116.29434,160.369874 108.120755,174.352301 C101.524528,185.481172 88.3320755,190.902929 75.7132075,194.041841 C63.0943396,197.180753 49.7584906,199.178243 39.0037736,206.312134 C28.2490566,213.446025 20.7924528,228.141841 26.9584906,239.556067 C29.5396226,244.407113 33.9849057,247.831381 37.4264151,251.969038 C41.0113208,256.106695 43.7358491,261.813808 41.7283019,266.807531 C40.4377358,270.374477 37.1396226,272.8 34.5584906,275.653556 C19.2150943,292.48954 57.645283,300.764854 69.1169811,289.350628 C58.7924528,288.494561 50.4754717,278.935146 49.3283019,268.662343 C48.3245283,258.38954 53.4867925,248.116736 61.0867925,241.268201 C68.6867925,234.419665 78.7245283,230.424686 88.9056604,227.999163 C99.3735849,225.430962 110.701887,224.004184 118.588679,216.870293 C126.045283,210.164435 128.769811,199.463598 128.769811,189.476151 C128.769811,179.488703 126.475472,169.501255 125.758491,159.513808 C125.041509,150.667782 124.324528,131.406276 135.366038,114.712971 C138.807547,109.861925 146.264151,100.159833 161.750943,93.1686192 Z"/>
            <path fill="url(#spa-Q)" d="M112.996226,128.267364 C111.418868,128.267364 112.85283,137.541423 106.113208,149.954393 C98.3698113,164.222176 85.6075472,171.641423 81.3056604,174.209623 C67.2528302,182.199582 63.0943396,178.204603 52.7698113,185.623849 C38.4301887,195.896653 33.8415094,213.017992 34.845283,213.588703 C35.5622642,214.016736 39.0037736,204.6 49.1849057,198.464854 C58.2188679,193.043096 54.490566,200.747699 68.4,198.464854 C79.4415094,196.610042 102.384906,188.762762 110.415094,180.630126 C126.618868,163.93682 116.150943,128.267364 112.996226,128.267364 Z"/>
            <path fill="url(#spa-R)" d="M111.418868,131.263598 C111.418868,131.120921 111.418868,131.120921 111.418868,131.263598 C109.267925,130.835565 107.116981,131.691632 105.683019,133.11841 C104.249057,134.545188 103.245283,136.4 102.098113,138.112134 C95.9320755,147.243515 85.1773585,152.950628 74.1358491,153.093305 C71.1245283,153.093305 68.1132075,152.80795 65.1018868,153.093305 C62.090566,153.378661 59.0792453,154.662762 57.3584906,157.088285 C54.0603774,161.653975 56.9283019,168.074477 55.7811321,173.638912 C54.6339623,179.060669 49.6150943,182.912971 44.4528302,185.053138 C39.290566,187.193305 33.6981132,188.19205 28.6792453,190.760251 C18.4981132,196.039331 12.4754717,207.88159 13.0490566,219.295816 C13.3358491,225.858996 15.7735849,232.13682 19.3584906,237.4159 C21.2226415,240.126778 23.3735849,242.552301 25.8113208,244.692469 C26.9584906,245.691213 28.2490566,246.832636 29.5396226,247.688703 C30.5433962,248.259414 33.9849057,248.687448 34.4150943,249.400837 C28.8226415,239.128033 28.2490566,225.430962 35.1320755,215.871548 C42.0150943,206.454812 54.2037736,202.887866 65.1018868,198.464854 C77.7207547,193.328452 89.6226415,186.337238 98.9433962,176.635146 C108.264151,166.933054 115.003774,154.09205 115.720755,140.537657 C116.007547,136.828033 115.003774,132.119665 111.418868,131.263598 Z"/>
            <path fill="url(#spa-S)" d="M105.539623,131.263598 C104.822642,133.689121 103.818868,136.114644 101.667925,137.6841 C98.9433962,139.68159 95.0716981,139.538912 91.9169811,138.254812 C88.7622642,136.970711 86.1811321,134.830544 83.4566038,132.833054 C75.5698113,127.125941 66.2490566,123.27364 56.4981132,122.702929 C46.7471698,122.132218 36.709434,125.413808 29.8264151,132.119665 C22.9433962,138.825523 19.5018868,149.383682 22.3698113,158.657741 C23.8037736,163.223431 26.5283019,167.361088 28.5358491,171.641423 C30.5433962,176.064435 31.8339623,181.058159 30.2566038,185.623849 C28.6792453,189.904184 24.8075472,193.043096 20.7924528,195.325941 C16.7773585,197.608787 12.3320755,199.320921 8.89056604,202.317155 C2.7245283,207.453556 -0.143396226,216.442259 2.00754717,224.146862 C5.01886792,235.275732 14.9132075,238.842678 24.9509434,241.125523 C18.6415094,236.417155 14.7698113,228.569874 14.9132075,220.722594 C15.2,212.875314 19.3584906,205.170711 26.0981132,200.890377 C30.8301887,197.751464 37.2830189,195.753975 39.0037736,190.332218 C40.8679245,184.625105 36.2792453,179.203347 34.2716981,173.638912 C32.2641509,168.217155 32.8377358,161.796653 35.5622642,156.660251 C38.2867925,151.523849 43.3056604,147.671548 49.0415094,146.24477 C61.0867925,143.391213 73.2754717,151.238494 85.6075472,150.953138 C97.3660377,150.667782 108.264151,142.677824 113.713208,132.405021 C119.162264,122.132218 120.022642,109.719247 118.158491,98.0196653 C112.85283,107.293724 108.837736,117.423849 106.4,127.839331 C106.113208,128.980753 105.826415,130.122176 105.539623,131.263598 Z"/>
            <path fill="url(#spa-T)" d="M112.85283,128.124686 C105.25283,140.252301 89.4792453,146.530126 75.5698113,143.105858 C66.5358491,140.823013 58.0754717,134.830544 48.754717,135.543933 C41.0113208,136.257322 34.2716981,141.821757 31.1169811,148.812971 C27.9622642,155.804184 28.3924528,164.079498 31.1169811,171.356067 C32.8377358,176.064435 35.5622642,180.630126 34.845283,185.623849 C33.6981132,192.472385 26.2415094,196.182008 21.509434,201.31841 C16.9207547,206.312134 12.9056604,216.299582 15.9169811,223.005439 C18.0679245,227.856485 18.9283019,219.866527 19.9320755,217.72636 C21.7962264,213.874059 24.9509434,210.592469 28.2490566,207.738912 C33.8415094,202.887866 40.4377358,198.750209 44.4528302,192.472385 C47.3207547,187.906695 48.4679245,182.342259 48.1811321,176.920502 C47.8943396,171.070711 46.1735849,164.650209 49.4716981,159.799163 C51.7660377,156.374895 55.9245283,154.805439 60.0830189,154.377406 C64.0981132,153.949372 68.2566038,154.520084 72.2716981,154.662762 C89.3358491,154.805439 106.113208,143.819247 112.85283,128.124686 Z"/>
            <path fill="url(#spa-U)" d="M116.437736,121.276151 C114.143396,119.99205 107.403774,143.676569 86.8981132,151.095816 C68.5433962,157.658996 43.4490566,143.105858 43.4490566,179.203347 C43.4490566,191.616318 42.3018868,194.469874 43.4490566,194.897908 C44.8830189,195.468619 47.6075472,192.472385 54.0603774,183.341004 C55.9245283,180.630126 57.2150943,171.356067 59.9396226,169.073222 C74.1358491,157.088285 86.6113208,165.078243 101.237736,153.664017 C115.577358,142.107113 118.445283,122.417573 116.437736,121.276151 Z"/>
            <path fill="url(#spa-V)" d="M260.120755,153.378661 C249.366038,163.93682 239.328302,168.50251 231.871698,170.785356 C218.966038,174.780335 213.660377,172.782845 202.90566,177.919247 C193.871698,182.199582 186.128302,190.902929 186.558491,200.747699 C186.845283,208.309623 191.720755,215.015481 197.743396,219.581172 C203.766038,224.146862 210.792453,227.000418 217.675472,230.282008 C224.558491,233.563598 231.298113,237.558577 235.743396,243.551046 C242.05283,251.969038 242.769811,264.096653 237.607547,273.228033 C232.445283,282.359414 221.690566,288.066527 211.222642,287.21046 C219.396226,283.786192 223.124528,273.370711 220.973585,264.810042 C218.822642,256.249372 211.939623,249.400837 204.339623,244.835146 C196.739623,240.269456 188.135849,237.4159 179.962264,233.848954 C172.792453,230.710042 162.324528,226.001674 158.45283,218.582427 C154.437736,210.592469 158.022642,199.606276 163.041509,192.900418 C168.490566,185.623849 176.520755,180.772803 184.69434,176.920502 C197.6,170.785356 207.064151,168.645188 220.830189,164.935565 C230.29434,162.510042 243.773585,158.657741 260.120755,153.378661 Z"/>
            <path fill="url(#spa-W)" d="M265.856604,148.099582 C245.49434,159.513808 233.162264,162.938075 225.418868,163.651464 C223.698113,163.794142 216.384906,164.792887 206.633962,166.790377 C202.90566,167.503766 199.177358,168.645188 195.735849,170.071967 C186.845283,173.78159 179.101887,180.772803 175.516981,189.618828 C171.932075,198.464854 172.649057,209.308368 178.384906,217.012971 C185.841509,227.143096 200.181132,230.995397 206.34717,241.98159 C210.50566,249.543515 209.932075,259.102929 206.203774,266.807531 C202.475472,274.654812 196.166038,280.789958 189.283019,286.069038 C183.116981,290.777406 175.660377,294.915063 167.916981,294.487029 C155.728302,293.630962 154.437736,283.786192 153.003774,274.369456 C151.139623,261.385774 147.411321,248.687448 145.54717,235.703766 C143.396226,221.00795 143.683019,205.313389 150.709434,192.329707 C159.313208,176.349791 174.943396,169.929289 196.309434,161.653975 C211.079245,155.804184 234.739623,148.670293 265.856604,148.099582 Z"/>
            <path fill="url(#spa-X)" d="M265.569811,148.527615 C259.54717,158.087029 248.649057,163.508787 237.607547,166.362343 C226.566038,169.2159 215.237736,169.786611 204.05283,172.069456 C192.867925,174.352301 181.683019,178.775314 174.369811,187.335983 C167.773585,195.040586 165.049057,205.456067 164.618868,215.586192 C164.188679,225.716318 165.909434,235.846444 167.2,245.833891 C168.633962,257.676151 168.920755,271.087866 160.74717,279.791213 C155.441509,285.498326 147.554717,287.923849 140.098113,289.635983 C132.928302,291.205439 125.328302,292.204184 118.158491,290.49205 C111.562264,288.922594 105.539623,284.499582 102.671698,278.221757 C99.5169811,271.373222 108.264151,266.950209 114.430189,266.664854 C120.45283,266.23682 126.332075,268.23431 132.211321,268.662343 C136.083019,268.947699 140.384906,268.519665 143.109434,265.808787 C146.69434,262.241841 146.264151,256.39205 145.403774,251.398326 C142.966038,236.131799 139.811321,220.009205 145.116981,205.456067 C150.279245,191.045607 163.184906,180.487448 177.237736,174.209623 C191.290566,167.931799 206.633962,165.363598 221.833962,162.510042 C237.033962,159.656485 252.233962,156.232218 265.569811,148.527615 Z"/>
            <path fill="url(#spa-Y)" d="M161.89434,233.135565 C163.615094,245.405858 164.475472,251.541004 163.615094,256.962762 C163.328302,258.817573 159.743396,280.219247 143.969811,286.782427 C142.679245,287.353138 132.784906,291.348117 128.339623,286.639749 C125.041509,283.215481 125.471698,276.08159 128.483019,273.941423 C131.350943,271.943933 134.792453,275.510879 141.532075,274.940167 C141.532075,274.940167 146.69434,274.512134 152.430189,270.374477 C167.2,259.816318 155.298113,205.741423 156.301887,205.598745 C156.732075,205.456067 159.456604,216.014226 161.89434,233.135565 Z" opacity=".183"/>
            <path fill="url(#spa-Z)" d="M242.913208,168.930544 C234.166038,170.214644 225.275472,174.780335 221.690566,182.770293 C218.679245,189.761506 220.256604,197.894142 223.841509,204.6 C227.426415,211.305858 232.875472,216.727615 238.181132,222.149372 C243.486792,227.57113 248.649057,233.420921 251.660377,240.412134 C255.532075,249.686192 254.815094,260.815063 249.796226,269.661088 C244.777358,278.364435 235.456604,284.642259 225.275472,285.92636 C236.173585,280.219247 241.192453,266.094142 237.89434,254.251883 C234.596226,242.409623 224.271698,233.278243 212.369811,229.568619 C207.49434,227.999163 202.475472,227.285774 197.743396,225.430962 C182.543396,219.438494 181.826415,199.748954 190.286792,187.764017 C195.879245,179.774059 204.626415,174.637657 213.94717,171.926778 C223.411321,169.073222 233.30566,168.645188 242.913208,168.930544 Z"/>
            <path fill="url(#spa-aa)" d="M242.626415,164.222176 C245.064151,163.366109 247.215094,162.795397 248.649057,162.367364 C245.207547,165.220921 240.618868,169.786611 236.460377,176.349791 C233.449057,181.200837 231.441509,184.482427 230.437736,189.333473 C228.143396,202.031799 234.45283,213.303347 236.460377,216.870293 C240.188679,223.290795 244.34717,226.857741 243.630189,227.713808 C242.769811,228.712552 236.74717,225.57364 232.445283,222.006695 C219.539623,211.305858 211.939623,187.621339 221.260377,176.064435 C226.135849,169.929289 235.886792,166.647699 242.626415,164.222176 Z"/>
          </g>
          <g fill-rule="nonzero" transform="translate(221.355)">
            <path fill="url(#spa-ab)" d="M143.25283,33.8146444 C143.25283,33.8146444 143.396226,30.5330544 139.667925,26.6807531 C123.750943,9.4167364 99.8037736,0.570711297 76.2867925,0.99874477 C69.1169811,1.14142259 31.5471698,0.713389121 11.4716981,25.3966527 C4.8754717,33.3866109 -1.33226763e-15,44.0874477 1.14716981,44.8008368 C2.00754717,45.5142259 7.45660377,37.5242678 16.2037736,29.5343096 C21.509434,24.8259414 35.4188679,12.6983264 54.6339623,9.4167364 C69.1169811,6.99121339 84.6037736,9.70209205 97.0792453,17.5493724 C108.837736,24.9686192 118.301887,36.9535565 131.924528,39.3790795 C134.218868,39.807113 136.656604,39.9497908 138.807547,39.0937238 C139.237736,38.951046 142.822642,37.2389121 143.25283,34.2426778 C143.25283,34.1 143.25283,33.9573222 143.25283,33.8146444 Z"/>
            <path fill="url(#spa-ac)" d="M138.233962,39.0937238 C138.377358,38.5230126 138.520755,37.8096234 138.520755,37.0962343 C138.377358,33.5292887 135.222642,30.81841 132.211321,28.8209205 C114.286792,16.6933054 93.4943396,8.27531381 71.9849057,7.27656904 C62.6641509,6.84853556 30.5433962,7.27656904 12.6188679,28.1075314 C7.31320755,34.3853556 2.29433962,43.5167364 3.58490566,44.658159 C4.73207547,45.6569038 10.3245283,40.0924686 18.7849057,34.1 C27.6754717,27.8221757 39.290566,20.1175732 54.490566,17.5493724 C67.5396226,15.2665272 81.5924528,17.4066946 92.490566,24.8259414 C98.6566038,29.1062762 103.675472,34.9560669 109.841509,39.3790795 C115.864151,43.9447699 123.607547,47.2263598 130.920755,45.2288703 C134.218868,44.3728033 137.373585,42.0899582 138.233962,39.0937238 Z"/>
            <path fill="url(#spa-ad)" d="M114.860377,30.81841 C114,30.3903766 112.709434,29.8196653 111.275472,29.248954 C106.686792,27.2514644 95.9320755,22.6857741 83.8867925,19.6895397 C69.9773585,16.1225941 62.9509434,14.4104603 54.2037736,15.5518828 C43.8792453,16.9786611 33.9849057,21.2589958 24.6641509,25.8246862 C16.2037736,29.9623431 7.45660377,35.9548117 3.58490566,44.8008368 C3.01132075,46.2276151 1.00377358,51.6493724 4.30188679,49.6518828 C6.30943396,48.5104603 5.73584906,44.2301255 7.16981132,42.3753138 C11.4716981,36.8108787 18.9283019,36.2401674 25.5245283,37.2389121 C36.709434,38.951046 46.0301887,34.9560669 54.2037736,33.2439331 C64.9584906,30.9610879 72.7018868,25.3966527 80.8754717,25.3966527"/>
            <path fill="url(#spa-ae)" d="M106.113208,32.3878661 C105.969811,30.81841 104.392453,29.8196653 102.958491,29.248954 C89.0490566,22.9711297 73.4188679,20.8309623 58.2188679,21.9723849 C43.0188679,23.1138075 28.1056604,27.2514644 14.0528302,33.1012552 C10.3245283,34.6707113 6.45283019,36.525523 4.01509434,39.6644351 C2.00754717,42.3753138 1.14716981,47.083682 3.44150943,49.9372385 C6.02264151,53.0761506 11.0415094,51.2213389 14.0528302,49.2238494 C16.9207547,47.2263598 19.2150943,44.5154812 21.7962264,42.0899582 C30.5433962,33.8146444 42.5886792,29.1062762 54.6339623,29.1062762 C70.4075472,29.248954 85.4641509,37.0962343 101.09434,35.8121339 C103.388679,35.8121339 106.256604,34.6707113 106.113208,32.3878661 Z"/>
          </g>
          <g fill-rule="nonzero" transform="translate(202.636 51.704)">
            <path fill="url(#spa-af)" d="M23.8037736,9.9874477 C24.090566,4.85104603 4.15849057,-2.56820084 1.00377358,1.42677824 C-1.00377358,3.85230126 2.1509434,12.1276151 9.17735849,14.6958159 C16.0603774,17.1213389 23.6603774,12.983682 23.8037736,9.9874477 Z"/>
            <path fill="url(#spa-ag)" d="M0.860377358,2.85355649 C2.58113208,1.99748954 5.87924528,9.70209205 13.4792453,10.7008368 C17.6377358,11.2715481 21.0792453,9.4167364 21.509434,10.4154812 C21.9396226,11.1288703 19.7886792,12.8410042 18.0679245,13.6970711 C14.6264151,15.5518828 10.8981132,14.9811715 9.7509434,14.6958159 C8.60377358,14.5531381 4.73207547,13.6970711 2.29433962,10.2728033 C0.286792453,7.41924686 -0.430188679,3.42426778 0.860377358,2.85355649 Z"/>
          </g>
          <g fill-rule="nonzero" transform="translate(233.524 28.878)">
            <path fill="#A1CEA1" d="M4.15849057,0.856066946 C7.02641509,0.142677824 8.60377358,4.56569038 14.9132075,9.13138075 C24.3773585,15.8372385 32.4075472,14.5531381 32.5509434,16.9786611 C32.6943396,20.260251 17.6377358,22.5430962 11.1849057,21.8297071 C7.74339623,21.4016736 4.58867925,19.9748954 3.15471698,18.4054393 C3.01132075,18.1200837 2.7245283,17.9774059 2.7245283,17.9774059 C2.7245283,17.9774059 1.00377358,15.6945607 0.286792453,12.983682 C-0.573584906,9.55941423 0.716981132,1.71213389 4.15849057,0.856066946 Z"/>
            <path fill="url(#spa-ah)" d="M19.2150943,17.9774059 C9.17735849,13.2690377 5.87924528,13.1263598 4.01509434,9.4167364 C2.58113208,6.56317992 2.29433962,2.56820084 4.15849057,0.99874477 C5.73584906,-0.285355649 8.46037736,0.428033473 10.6113208,0.99874477 C11.9018868,1.28410042 14.6264151,2.28284519 17.9245283,4.99372385 C22.0830189,8.56066946 21.2226415,10.2728033 24.5207547,12.4129707 C28.2490566,14.8384937 30.6867925,13.4117155 32.4075472,15.8372385 C33.9849057,17.9774059 33.9849057,21.6870293 32.4075472,22.9711297 C30.5433962,24.2552301 27.8188679,21.9723849 19.2150943,17.9774059 Z"/>
          </g>
          <g fill-rule="nonzero" transform="translate(299.507 10.712)">
            <path fill="#A1CEA1" d="M3.01132075,23.2564854 C8.60377358,25.967364 26.2415094,7.98995816 23.3735849,2.56820084 C21.509434,-0.856066946 10.8981132,-1.42677824 4.73207547,5.13640167 C-1.29056604,11.4142259 -0.430188679,21.5443515 3.01132075,23.2564854 Z"/>
            <path fill="url(#spa-ai)" d="M23.5169811,2.28284519 C23.8037736,4.85104603 11.7584906,5.2790795 6.59622642,13.5543933 C3.72830189,18.1200837 4.44528302,23.2564854 3.01132075,23.3991632 C1.86415094,23.3991632 0.716981132,20.1175732 0.286792453,17.5493724 C-0.430188679,12.4129707 2.29433962,8.27531381 3.01132075,7.13389121 C3.87169811,5.99246862 6.88301887,1.71213389 12.7622642,0.713389121 C17.6377358,-0.285355649 23.3735849,0.428033473 23.5169811,2.28284519 Z"/>
          </g>
          <g fill-rule="nonzero" transform="translate(242.414 28.878)">
            <path fill="url(#spa-aj)" d="M24.090566,24.9686192 C21.3660377,26.1100418 17.6377358,23.6845188 15.6301887,21.6870293 C9.60754717,15.409205 10.754717,2.71087866 15.0566038,0.713389121 C17.9245283,-0.570711297 21.9396226,2.56820084 23.8037736,4.56569038 C27.1018868,8.13263598 27.1018868,12.5556485 27.1018868,15.2665272 C27.1018868,18.2627615 27.1018868,23.541841 24.090566,24.9686192 Z"/>
            <path fill="url(#spa-ak)" d="M25.954717,25.967364 C23.6603774,25.8246862 22.6566038,22.4004184 22.5132075,20.260251 C21.9396226,13.1263598 28.8226415,4.28033473 32.4075472,4.7083682 C34.7018868,4.99372385 35.7056604,8.8460251 35.7056604,10.9861925 C35.9924528,14.8384937 33.8415094,18.1200837 32.4075472,20.1175732 C31.1169811,22.2577406 28.5358491,26.1100418 25.954717,25.967364 Z"/>
            <path fill="url(#spa-al)" d="M44.5962264,47.3690377 C42.445283,49.7945607 33.6981132,44.8008368 28.9660377,38.951046 C26.2415094,35.6694561 26.6716981,30.1050209 26.8150943,26.5380753 C26.9584906,24.5405858 22.6566038,23.541841 23.9471698,22.6857741 C27.245283,20.260251 37.1396226,24.6832636 39.7207547,26.5380753 C41.5849057,27.8221757 42.8754717,29.3916318 43.4490566,30.81841 C43.8792453,31.8171548 44.309434,32.8158996 44.5962264,36.8108787 C45.0264151,41.5192469 45.1698113,46.7983264 44.5962264,47.3690377 Z"/>
            <path fill="url(#spa-am)" d="M14.6264151,49.3665272 C11.1849057,47.6543933 11.0415094,40.9485356 12.3320755,36.6682008 C14.6264151,29.1062762 22.5132075,22.2577406 24.5207547,23.541841 C24.9509434,23.8271967 26.9584906,26.2527197 27.8188679,29.1062762 C28.6792453,32.1025105 26.9584906,41.5192469 26.6716981,42.232636 C24.2339623,46.7983264 18.354717,51.0786611 14.6264151,49.3665272 Z"/>
            <path fill="url(#spa-an)" d="M0.286792453,23.8271967 C1.14716981,19.6895397 12.045283,18.1200837 18.7849057,19.9748954 C21.9396226,20.8309623 22.9433962,21.9723849 23.3735849,22.9711297 C24.3773585,25.1112971 22.9433962,27.6794979 22.6566038,27.9648536 C20.3622642,31.8171548 14.1962264,33.3866109 9.32075472,32.1025105 C4.73207547,30.81841 -0.286792453,26.823431 0.286792453,23.8271967 Z"/>
          </g>
          <g fill-rule="nonzero" transform="translate(264.41 27.016)">
            <path fill="url(#spa-ao)" d="M24.3773585,6.27782427 C23.6603774,1.14142259 2.7245283,-2.42552301 0.286792453,2.14016736 C-1.14716981,4.99372385 3.44150943,12.4129707 10.8981132,13.6970711 C18.2113208,14.8384937 24.8075472,9.4167364 24.3773585,6.27782427 Z"/>
            <path fill="url(#spa-ap)" d="M1.43396226,1.14142259 C3.58490566,0.285355649 5.87924528,7.13389121 13.3358491,9.9874477 C17.7811321,11.6995816 21.6528302,10.9861925 21.7962264,12.1276151 C21.9396226,13.1263598 19.2150943,14.2677824 17.0641509,14.8384937 C13.3358491,15.6945607 10.1811321,14.4104603 8.03018868,13.4117155 C5.01886792,12.1276151 1.43396226,10.558159 0.430188679,6.99121339 C-0.143396226,4.85104603 3.55271368e-15,1.71213389 1.43396226,1.14142259 Z"/>
          </g>
          <g fill-rule="nonzero" transform="translate(278.45 47.977)">
            <path fill="url(#spa-aq)" d="M23.0867925,26.5380753 C20.0754717,26.3953975 19.9320755,21.6870293 15.2,15.409205 C8.31698113,6.13514644 0.143396226,4.99372385 0.716981132,2.71087866 C1.57735849,-0.428033473 16.6339623,1.99748954 22.5132075,4.56569038 C25.8113208,5.99246862 28.2490566,8.27531381 29.2528302,10.2728033 C29.3962264,10.558159 29.5396226,10.8435146 29.5396226,10.8435146 C29.5396226,10.8435146 30.5433962,13.4117155 30.4,16.265272 C30.1132075,19.6895397 26.6716981,26.6807531 23.0867925,26.5380753 Z"/>
            <path fill="url(#spa-ar)" d="M13.909434,5.70711297 C19.7886792,9.4167364 25.0943396,12.8410042 25.8113208,18.4054393 C26.2415094,22.1150628 24.6641509,26.2527197 23.0867925,26.3953975 C22.2264151,26.5380753 21.3272441,26.6118577 19.4630932,23.7583013 C17.455546,20.6193891 17.0641509,17.834728 15.7735849,15.9799163 C15.0566038,15.2665272 13.1924528,12.2702929 10.0377358,9.9874477 C5.4490566,6.56317992 1.86415094,7.13389121 0.716981132,3.99497908 C0.573584906,3.70962343 -0.143396226,1.85481172 0.716981132,0.856066946 C2.86792453,-1.42677824 12.3320755,4.85104603 13.909434,5.70711297 Z"/>
          </g>
          <g fill-rule="nonzero" transform="translate(273.77 20.03)">
            <path fill="url(#spa-as)" d="M3.44150943,30.2476987 C2.00754717,27.5368201 6.73962264,22.1150628 10.6113208,19.2615063 C14.1962264,16.6933054 20.2188679,14.1251046 22.0830189,15.9799163 C23.0867925,17.1213389 21.7962264,18.2627615 19.7886792,27.6794979 C19.645283,28.5355649 19.3584906,29.6769874 18.354717,30.6757322 C18.2113208,30.81841 17.7811321,31.1037657 17.2075472,31.3891213 C15.3433962,32.2451883 13.3358491,31.9598326 12.7622642,31.9598326 C4.73207547,30.81841 4.01509434,31.1037657 3.44150943,30.2476987 Z"/>
            <path fill="url(#spa-at)" d="M0.286792453,9.70209205 C0.573584906,7.56192469 3.87169811,6.42050209 5.01886792,6.13514644 C10.8981132,4.1376569 16.490566,7.70460251 17.3509434,8.41799163 C19.2150943,9.70209205 20.2188679,10.9861925 20.6490566,11.6995816 C21.509434,12.8410042 22.6566038,14.8384937 22.0830189,16.265272 C21.2226415,18.5481172 14.7698113,18.5481172 10.0377358,17.1213389 C5.73584906,15.9799163 -0.143396226,12.6983264 0.286792453,9.70209205 Z"/>
            <path fill="url(#spa-au)" d="M21.7962264,2.42552301 C21.7962264,2.42552301 24.6641509,5.2790795 23.5169811,10.8435146 C23.5169811,10.9861925 23.3735849,11.1288703 23.3735849,11.2715481 C22.9433962,12.8410042 22.3698113,13.839749 21.9396226,14.4104603 C21.2226415,15.2665272 22.9433962,16.9928532 21.7962264,16.9928532 C19.9320755,16.9928532 16.2037736,12.5556485 15.2,8.8460251 C14.1962264,4.28033473 13.6226415,1.99748954 14.6264151,0.99874477 C16.0603774,-0.428033473 19.7886792,0.428033473 21.7962264,2.42552301 Z"/>
            <path fill="#FF7D64" d="M38.7169811,6.70585774 C39.8641509,7.84728033 39.5773585,9.55941423 39.4339623,10.2728033 C38.7169811,13.9824268 34.7018868,16.1225941 34.1283019,16.4079498 C34.1283019,16.4079498 30.8301887,18.1200837 26.0981132,17.834728 C25.8113208,17.834728 25.6679245,17.834728 25.5245283,17.834728 C24.5207547,17.6920502 22.2264151,17.5493724 21.509434,16.6933054 C20.5056604,15.5518828 22.8,10.8435146 26.8150943,7.98995816 C30.5433962,5.70711297 36.2792453,4.42301255 38.7169811,6.70585774 Z"/>
            <path fill="url(#spa-av)" d="M30.4,34.5280335 C29.2528302,35.6694561 27.3886792,35.0987448 26.6716981,34.9560669 C23.0867925,33.9573222 21.0792453,29.8196653 20.7924528,29.248954 C20.7924528,29.248954 19.3584906,25.8246862 19.9320755,21.116318 C19.9320755,20.8309623 19.9320755,20.6882845 20.0754717,20.5456067 C20.2188679,19.5468619 20.6490566,17.1213389 21.3660377,16.6933054 C22.6566038,15.8372385 27.1018868,18.4054393 29.6830189,22.5430962 C32.1207547,26.5380753 32.8377358,32.3878661 30.4,34.5280335 Z"/>
          </g>
          <g fill-rule="nonzero" transform="translate(315.419 6.52)">
            <path fill="#8B3539" d="M3.15471698,31.2464435 C1.86415094,28.8209205 6.02264151,24.1125523 9.60754717,21.5443515 C12.7622642,19.2615063 18.0679245,16.9786611 19.7886792,18.690795 C20.7924528,19.6895397 19.5018868,20.6882845 17.7811321,28.9635983 C17.6377358,29.6769874 17.3509434,30.81841 16.490566,31.674477 C16.3471698,31.8171548 16.0603774,32.1025105 15.4867925,32.3878661 C13.7660377,33.2439331 12.045283,32.9585774 11.4716981,32.8158996 C4.15849057,31.8171548 3.58490566,32.1025105 3.15471698,31.2464435 Z"/>
            <path fill="url(#spa-aw)" d="M0.286792453,13.1263598 C0.573584906,11.4142259 3.01132075,10.2728033 4.44528302,9.84476987 C5.30566038,9.55941423 6.16603774,9.55941423 13.6226415,12.1276151 C16.3471698,13.1263598 17.3509434,13.4117155 18.354717,14.6958159 C18.6415094,15.1238494 20.3622642,17.1213389 19.645283,18.690795 C18.7849057,20.8309623 13.0490566,20.9736402 8.74716981,19.6895397 C5.01886792,18.690795 -0.143396226,15.8372385 0.286792453,13.1263598 Z"/>
            <path fill="url(#spa-ax)" d="M10.754717,2.85355649 C11.1849057,1.71213389 12.3320755,0.713389121 13.4792453,0.428033473 C14.7698113,8.32667268e-17 16.2037736,0.285355649 17.4943396,0.856066946 C20.3622642,2.14016736 22.0830189,5.2790795 22.3698113,8.41799163 C22.6566038,11.5569038 21.3660377,14.6958159 19.645283,17.1213389 C15.7735849,22.5430962 12.9056604,10.558159 11.6150943,7.70460251 C10.8981132,6.27782427 10.3245283,4.56569038 10.754717,2.99623431 L10.754717,2.85355649 Z"/>
            <path fill="#FF7D64" d="M34.1283019,10.4154812 C35.1320755,11.4142259 34.845283,12.983682 34.7018868,13.6970711 C34.1283019,16.9786611 30.5433962,18.9761506 29.9698113,19.2615063 C29.9698113,19.2615063 27.1018868,20.8309623 22.8,20.5456067 C22.6566038,20.5456067 22.3698113,20.5456067 22.3698113,20.5456067 C21.509434,20.4029289 19.3584906,20.260251 18.9283019,19.5468619 C18.0679245,18.4054393 20.0754717,14.2677824 23.6603774,11.8422594 C26.9584906,9.55941423 32.1207547,8.41799163 34.1283019,10.4154812 Z"/>
            <path fill="url(#spa-ay)" d="M26.8150943,35.0987448 C25.0943396,36.9535565 22.2264151,37.38159 20.0754717,36.8108787 C16.6339623,35.9548117 14.0528302,32.5305439 13.909434,28.2502092 C16.7773585,25.8246862 17.4943396,24.2552301 17.6377358,23.2564854 C17.6377358,23.2564854 17.6377358,22.9711297 17.6377358,22.8284519 C17.7811321,21.9723849 18.0679245,19.8322176 18.7849057,19.4041841 C19.9320755,18.5481172 23.9471698,20.8309623 26.0981132,24.5405858 C26.5283019,25.1112971 30.1132075,31.3891213 26.8150943,35.0987448 Z"/>
          </g>
          <g fill-rule="nonzero" transform="translate(298.104 21.426)">
            <path fill="url(#spa-am)" d="M19.645283,17.2640167 C18.2113208,15.6945607 19.0716981,12.4129707 20.0754717,10.558159 C23.2301887,4.85104603 32.4075472,2.71087866 34.7018868,5.42175732 C36.1358491,7.13389121 34.845283,10.7008368 33.8415094,12.4129707 C32.1207547,15.5518828 28.9660377,16.5506276 26.9584906,17.1213389 C25.0943396,17.9774059 21.3660377,19.2615063 19.645283,17.2640167 Z"/>
            <path fill="url(#spa-az)" d="M20.5056604,20.260251 C20.0754717,18.690795 22.2264151,17.1213389 23.8037736,16.5506276 C28.6792453,14.5531381 36.4226415,17.5493724 36.9962264,20.1175732 C37.4264151,21.8297071 34.845283,23.3991632 33.2679245,23.8271967 C30.5433962,24.8259414 27.8188679,24.1125523 26.0981132,23.541841 C24.2339623,23.1138075 20.9358491,22.1150628 20.5056604,20.260251 Z"/>
            <path fill="url(#spa-aA)" d="M10.8981132,24.6832636 C11.1849057,23.3991632 10.1811321,23.2564854 10.8981132,22.1150628 C13.6226415,17.9774059 19.3584906,15.2665272 21.7962264,16.9786611 C22.6566038,17.6920502 21.7962264,18.690795 21.7962264,19.5468619 C21.7962264,21.116318 22.2264151,22.8284519 21.7962264,24.1125523 C21.2226415,25.8246862 20.7924528,29.6769874 19.9320755,30.3903766 C19.3584906,30.9610879 18.6415094,31.3891213 15.9169811,32.5305439 C12.7622642,33.9573222 9.89433962,28.5355649 10.8981132,24.6832636 Z"/>
            <path fill="url(#spa-aB)" d="M0.286792453,16.1225941 C0.430188679,14.9811715 5.30566038,14.6958159 8.17358491,14.1251046 C12.045283,13.2690377 14.1962264,12.4129707 14.1962264,14.1251046 C20.0754717,13.9824268 19.9320755,16.265272 19.5018868,17.9774059 C19.3584906,18.4054393 19.0716981,18.4054393 17.3509434,19.5468619 C15.4867925,20.8309623 15.2,21.4016736 14.3396226,21.8297071 C11.9018868,23.3991632 8.89056604,22.9711297 8.31698113,22.8284519 C4.30188679,22.4004184 -0.143396226,19.1188285 0.286792453,16.1225941 Z"/>
            <path fill="url(#spa-aC)" d="M15.0566038,0.285355649 C18.2113208,-0.142677824 21.6528302,7.27656904 21.9396226,12.5556485 C22.0830189,14.9811715 21.3660377,15.9799163 20.7924528,16.4079498 C19.645283,17.5493724 17.6377358,17.1213389 17.2075472,17.1213389 C13.909434,16.4079498 11.4716981,12.4129707 11.1849057,8.56066946 C11.0415094,4.99372385 12.7622642,0.570711297 15.0566038,0.285355649 Z"/>
          </g>
          <g fill-rule="nonzero" transform="translate(338.82 9.78)">
            <path fill="url(#spa-aD)" d="M13.3358491,15.5518828 C11.9018868,16.265272 9.7509434,14.6958159 8.74716981,13.5543933 C5.4490566,9.70209205 6.02264151,1.85481172 8.46037736,0.570711297 C10.0377358,-0.142677824 12.3320755,1.71213389 13.1924528,2.99623431 C14.9132075,5.2790795 15.0566038,7.84728033 15.0566038,9.70209205 C15.0566038,11.4142259 15.0566038,14.6958159 13.3358491,15.5518828 Z"/>
            <path fill="url(#spa-aE)" d="M15.6301887,15.6945607 C14.4830189,15.5518828 13.909434,13.5543933 13.7660377,12.1276151 C13.4792453,7.84728033 17.2075472,2.28284519 19.2150943,2.56820084 C20.5056604,2.71087866 20.9358491,5.13640167 21.0792453,6.42050209 C21.2226415,8.8460251 20.0754717,10.8435146 19.2150943,12.1276151 C18.4981132,13.4117155 16.9207547,15.8372385 15.6301887,15.6945607 Z" transform="rotate(18 17.42 9.13)"/>
            <path fill="url(#spa-aF)" d="M24.6641509,27.6794979 C23.5169811,29.1062762 18.6415094,27.9648536 16.0603774,24.3979079 C13.7660377,21.116318 13.0490566,15.9799163 14.9132075,14.4104603 C16.7773585,12.8410042 20.5056604,15.5518828 21.9396226,16.6933054 C23.0867925,17.5493724 23.6603774,18.4054393 23.9471698,19.4041841 C24.2339623,19.9748954 24.3773585,20.6882845 24.5207547,23.1138075 C24.8075472,25.8246862 24.9509434,27.2514644 24.6641509,27.6794979 Z"/>
            <path fill="url(#spa-aG)" d="M8.17358491,30.6757322 C6.30943396,29.6769874 6.16603774,25.5393305 6.88301887,22.8284519 C8.17358491,18.1200837 12.6188679,15.1238494 13.7660377,15.9799163 C14.0528302,16.1225941 13.909434,16.4079498 14.4830189,18.1200837 C15.0566038,19.9748954 15.3433962,20.4029289 15.4867925,21.116318 C16.0603774,23.3991632 15.0566038,25.6820084 14.7698113,26.2527197 C13.4792453,29.1062762 10.1811321,31.8171548 8.17358491,30.6757322 Z"/>
            <path fill="url(#spa-aH)" d="M0.430188679,14.8384937 C0.860377358,12.2702929 6.73962264,11.4142259 10.4679245,12.4129707 C12.3320755,12.983682 12.7622642,13.6970711 13.0490566,14.2677824 C13.6226415,15.5518828 12.7622642,17.1213389 12.6188679,17.4066946 C11.3283019,19.8322176 8.03018868,20.8309623 5.30566038,19.9748954 C2.86792453,19.2615063 -9.99200722e-16,16.8359833 0.430188679,14.8384937 Z"/>
          </g>
          <g fill-rule="nonzero" transform="translate(208.251 35.4)">
            <path fill="url(#spa-aI)" d="M18.7849057,27.1087866 C15.2,23.3991632 24.8075472,5.70711297 30.6867925,6.56317992 C33.554717,6.99121339 35.2754717,11.8422594 35.4188679,14.9811715 C35.5622642,21.5443515 29.5396226,26.3953975 24.090566,27.3941423 C22.2264151,27.9648536 19.9320755,28.392887 18.7849057,27.1087866 Z"/>
            <path fill="url(#spa-aJ)" d="M19.3584906,25.1112971 C19.9320755,20.9736402 30.6867925,16.5506276 38.1433962,20.260251 C42.0150943,22.2577406 46.0301887,26.9661088 44.7396226,30.5330544 C43.8792453,33.1012552 40.7245283,34.2426778 39.8641509,34.5280335 C31.4037736,37.5242678 18.7849057,29.8196653 19.3584906,25.1112971 Z"/>
            <path fill="url(#spa-aK)" d="M18.7849057,27.1087866 C20.5056604,24.5405858 27.8188679,25.5393305 32.5509434,29.1062762 C33.554717,29.8196653 38.8603774,33.8146444 37.8566038,38.8083682 C37.4264151,40.6631799 36.2792453,43.0887029 33.9849057,43.8020921 C28.5358491,45.6569038 22.0830189,36.0974895 21.509434,35.0987448 C19.7886792,32.8158996 17.4943396,29.1062762 18.7849057,27.1087866 Z"/>
            <path fill="url(#spa-aL)" d="M20.3622642,27.9648536 C22.6566038,27.9648536 24.3773585,31.674477 25.8113208,34.5280335 C27.6754717,38.3803347 30.6867925,47.083682 27.245283,49.509205 C24.3773585,51.5066946 17.2075472,48.7958159 14.7698113,43.6594142 C11.4716981,36.9535565 16.7773585,27.9648536 20.3622642,27.9648536 Z"/>
            <path fill="url(#spa-aM)" d="M20.3622642,27.9648536 C21.7962264,30.6757322 18.2113208,35.0987448 17.2075472,36.2401674 C16.6339623,36.9535565 12.045283,42.232636 5.4490566,41.9472803 C3.72830189,41.8046025 2.00754717,41.8046025 1.00377358,40.5205021 C-1.00377358,37.6669456 2.29433962,30.3903766 7.88679245,27.5368201 C12.1886792,25.1112971 18.7849057,24.9686192 20.3622642,27.9648536 Z"/>
            <path fill="url(#spa-aN)" d="M20.3622642,27.1087866 C18.4981132,27.8221757 18.354717,26.1100418 15.4867925,23.8271967 C12.7622642,21.8297071 7.16981132,19.4041841 6.45283019,16.1225941 C4.73207547,8.70334728 10.0377358,0.285355649 13.7660377,0.428033473 C17.6377358,0.570711297 19.9320755,9.84476987 20.3622642,11.1288703 C21.6528302,16.4079498 24.090566,25.5393305 20.3622642,27.1087866 Z"/>
          </g>
          <g fill-rule="nonzero" transform="translate(339.286 66.61)">
            <path fill="url(#spa-aO)" d="M26.0981132,2.71087866 C25.954717,2.14016736 25.3811321,0.285355649 22.8,0.285355649 C19.7886792,0.285355649 14.6264151,2.42552301 11.3283019,4.1376569 C9.17735849,5.2790795 9.17735849,5.2790795 6.88301887,6.99121339 C5.87924528,7.84728033 0.286792453,12.983682 0.286792453,15.6945607 C-0.860377358,16.8359833 6.45283019,9.13138075 12.7622642,6.99121339 C15.9169811,5.84979079 17.7811321,4.99372385 19.5018868,4.85104603 C21.0792453,4.7083682 23.5169811,5.13640167 25.3811321,4.1376569 C26.0981132,3.70962343 26.2415094,3.28158996 26.0981132,2.71087866 Z"/>
            <path fill="url(#spa-aP)" d="M20.9358491,24.8259414 C20.9358491,24.2552301 13.7660377,22.8284519 11.9018868,22.6857741 C11.7584906,22.6857741 10.4679245,22.5430962 8.74716981,22.4004184 C7.88679245,22.2577406 7.16981132,22.1150628 6.59622642,21.9723849 C6.16603774,21.8297071 6.02264151,21.8297071 5.87924528,21.8297071 C5.87924528,21.8297071 5.73584906,21.6870293 5.73584906,21.8297071 C5.73584906,21.8297071 12.3320755,25.3966527 19.2150943,25.2539749 C19.7886792,25.1112971 20.7924528,25.1112971 20.9358491,24.8259414 Z"/>
            <path fill="#F39A6B" d="M31.5471698,43.2313808 C33.4113208,42.8033473 33.6981132,42.5179916 33.8415094,42.232636 C34.1283019,41.5192469 33.2679245,40.2351464 32.5509434,40.2351464 C32.1207547,40.2351464 31.8339623,40.6631799 31.2603774,41.2338912 C29.3962264,43.0887029 27.3886792,43.3740586 27.5320755,43.6594142 C27.6754717,44.0874477 30.9735849,43.3740586 31.5471698,43.2313808 Z"/>
            <path fill="#EE8046" d="M20.0754717,64.0623431 C20.2188679,64.0623431 21.0792453,63.7769874 21.0792453,63.7769874 C21.0792453,63.7769874 22.6566038,63.9196653 22.6566038,64.0623431 C22.6566038,64.4903766 17.9245283,64.4903766 20.0754717,64.0623431 Z M25.5245283,62.6355649 C25.5245283,62.3502092 28.6792453,62.0648536 29.5396226,61.4941423 C29.5396226,61.4941423 29.6830189,61.3514644 29.8264151,61.3514644 C30.1132075,61.4941423 30.4,62.2075314 30.2566038,62.492887 C29.6830189,63.7769874 25.5245283,63.0635983 25.5245283,62.6355649 Z"/>
            <path fill="#CB815C" d="M20.2188679,16.5506276 C19.5018868,17.834728 19.5018868,18.8334728 19.645283,19.2615063 C19.7886792,20.260251 20.5056604,21.2589958 20.7924528,21.6870293 C21.3660377,22.5430962 21.7962264,22.8284519 21.6528302,23.2564854 C21.509434,23.541841 20.9358491,23.541841 20.0754717,23.541841 C17.7811321,23.6845188 16.490566,24.2552301 16.490566,24.1125523 C16.490566,23.9698745 19.7886792,22.8284519 19.7886792,22.8284519 C20.0754717,22.6857741 20.3622642,22.6857741 20.3622642,22.5430962 C20.5056604,22.4004184 19.9320755,21.6870293 19.5018868,20.9736402 C19.0716981,19.9748954 19.0716981,19.1188285 19.2150943,18.8334728 C19.3584906,17.6920502 19.9320755,16.9786611 20.2188679,16.5506276 Z M20.0754717,24.1125523 C20.2188679,23.8271967 23.0867925,25.2539749 24.6641509,23.9698745 C25.2377358,23.541841 25.3811321,22.8284519 25.5245283,22.8284519 C25.6679245,22.8284519 25.5245283,23.9698745 24.8075472,24.5405858 C24.090566,25.1112971 23.3735849,25.1112971 22.9433962,25.1112971 C21.3660377,25.2539749 20.0754717,24.2552301 20.0754717,24.1125523 Z"/>
          </g>
        </g>
        <path fill="url(#spa-aQ)" d="M355.313401,92.0688655 C358.877201,92.0688655 360.401115,92.2937066 360.401115,91.5057187 C360.401115,91.3210271 358.864079,87.9492918 358.864079,87.9492918 C358.864079,87.9492918 358.500055,88.7403417 357.865042,89.1563953 C357.002221,89.7217052 355.718501,89.958615 354.90566,89.9598531 C353.780264,89.9615671 352.647534,90.1521468 351.220913,89.9598531 C348.129847,89.5432093 344.748252,88.6172427 344.748252,89.1563953 C344.748252,89.5492065 347.537397,90.589808 348.953144,90.9415321 C350.377416,91.2953744 353.526152,92.0688655 355.313401,92.0688655 Z" opacity=".962"/>
        <path fill="url(#spa-H)" d="M355.313401,92.0688655 C358.877201,92.0688655 361.384919,92.8568534 361.384919,92.0688655 C361.384919,91.8841739 360.401115,90.0239191 360.401115,90.0239191 C360.401115,90.0239191 358.155202,90.5254786 357.520188,90.9415321 C356.657368,91.506842 351.869545,90.9665661 351.869545,91.5057187 C351.869545,91.8985299 347.537397,90.589808 348.953144,90.9415321 C350.377416,91.2953744 353.526152,92.0688655 355.313401,92.0688655 Z"/>
      </g>
    </g>
    <path fill="url(#spa-f)" d="M447.359647,397.042855 C481.841056,397.042855 535.806495,367.099228 578.907189,343.921313 C582.264578,342.115837 576.306572,299.269765 578.907189,297.79148 C589.422693,291.814089 551.299354,315.625197 541.129652,319.8737 C483.566536,343.921313 483.566536,313.413221 417.144542,324.082905 C381.984618,329.730813 314.958318,313.161303 256.391649,313.161303 C198.419155,313.161303 160.621631,288.435226 154.632099,284.437371 C145.963919,278.651589 155.171665,304.17362 142.314436,297.79148 C124.842773,289.118802 23.494023,308.25183 31.7845091,324.082905 C40.6236444,340.961652 181.03801,352.898513 181.03801,373.174815 C181.03801,449.4569 399.331609,397.042855 447.359647,397.042855 Z" mask="url(#spa-b)" opacity=".155"/>
  </g>
</svg>
